<svg width="250" height="250" viewBox="0 0 250 250" fill="none" xmlns="http://www.w3.org/2000/svg">
<path d="M117 212.5L116.5 166H110L104 167L99.5 169L95 173L92 179L92.5 181L91 187.5L90.5 193.5L92 197.5L94 198L98.5 203L107.5 214V216L120.5 231.5L121 233L125 237L127 239.5L127.5 241.5L126.5 242.5L124.5 242L104 225.5L94 217.5L82.5 203.5L79.5 197L82.5 197.5L81 191.5V183L83.5 176L88.5 168L94.5 162L101 157L109 154L116.5 152.5L117 131L109 126L90 115L95 128.5L96 132L95.5 133.5H93.5L100.5 153L101 156L100 157H98.5L96.5 155L93.5 147L91.5 143.5L89.5 144L79 120.5L71.5 103.5L65 89L61.5 82L60.5 75.5V72L62 70.5H63.5L65.5 74L71.5 83.5L81 93.5L96.5 106.5L110 113.5L115 117L118 106.5L119 88L132.5 81L145.5 75.5L155 68.5L161 61L164 50.5L163.5 43L159.5 33L152.5 26.5L145.5 21L135.5 17.5H120L106.5 21L96 29.5L90 41L93.5 46.5L96 50.5L97.5 56.5L96.5 64L91.5 68.5L85.5 71H78.5L72.5 69L69 64.5L67 60.5V53.5L69 47.5L72.5 42.5L79 38.5L83 29L89 21L95.5 14L102.5 10L111.5 6.5L120.5 4.5H130L140 6.5L148.5 10L160 16.5L166.5 24.5L171 34.5L172.5 42.5V52L170.5 61L167.5 68L164 74.5L159.5 79L153.5 82L147.5 84.5L136.5 89.5L130.5 93.5L129 96.5L128.5 101.5L129 116L131.5 115L136 111L143 103L148.5 95.5L158 85.5L165 80L167.5 79.5L173.5 75.5L179 72L181.5 71L186 70.5L190 71.5L192.5 73.5L193.5 76.5V81.5L187.5 118L181 142.5L181.5 147V151L180 155.5L177.5 158.5L173.5 160.5L162.5 174.5L158 177.5L154 179H151.5L129.5 168.5L127.5 204.5L126.5 207.5L125.5 208.5H124.5L123 227.5L122 228H121L120 227.5L119 216L117 212.5Z" fill="white" stroke="white"/>
<path d="M76.5 50.5L81.5 48L86.5 49L89.5 51.5L90.5 56.5L89.5 61.5L85.5 65L80.5 65.5L76.5 64L74 60.5V56L76.5 50.5Z" fill="black" stroke="white"/>
<path d="M131 157L130 128.5L137.5 123L145.5 115.5L161 103L171.5 91L178.5 83.5L184 82.5L181.5 92.5L177 115L170.5 135H168L164 136.5L160.5 140L159 146.5L160 153.5L162 158L155 167L153 168L150.5 167.5L140 163L131 157Z" fill="black"/>
<path d="M166 149V146.5L166.5 144.5L167.5 143L170.5 142.5L173 143L174.5 145L175.5 147.5L174.5 150L171.5 152.5L168 151.5L166 149Z" fill="black"/>
<path d="M131 157L130 128.5L137.5 123L145.5 115.5L161 103L171.5 91L178.5 83.5L184 82.5L181.5 92.5L177 115L170.5 135H168L164 136.5L160.5 140L159 146.5L160 153.5L162 158L155 167L153 168L150.5 167.5L140 163L131 157Z" stroke="black"/>
<path d="M166 149V146.5L166.5 144.5L167.5 143L170.5 142.5L173 143L174.5 145L175.5 147.5L174.5 150L171.5 152.5L168 151.5L166 149Z" stroke="black"/>
</svg>
