<svg width="452" height="41" viewBox="0 0 452 41" fill="none" xmlns="http://www.w3.org/2000/svg">
<path d="M0.999937 24.9999C0.538432 23.9231 0.538432 23.0768 0.999937 21.9999C1.43505 20.9847 1.98468 20.435 2.99994 19.9999C4.07678 19.5384 4.92309 19.5384 5.99994 19.9999C7.0152 20.435 7.56483 20.9847 7.99994 21.9999C8.46144 23.0768 8.46144 23.9231 7.99994 24.9999C7.56483 26.0152 7.0152 26.5648 5.99994 26.9999C4.92309 27.4614 4.07678 27.4614 2.99994 26.9999C1.98468 26.5648 1.43505 26.0152 0.999937 24.9999Z" fill="white" stroke="white"/>
<path d="M444 24.9999C443.538 23.9231 443.538 23.0768 444 21.9999C444.435 20.9847 444.985 20.435 446 19.9999C447.077 19.5384 447.923 19.5384 449 19.9999C450.015 20.435 450.565 20.9847 451 21.9999C451.461 23.0768 451.461 23.9231 451 24.9999C450.565 26.0152 450.015 26.5648 449 26.9999C447.923 27.4614 447.077 27.4614 446 26.9999C444.985 26.5648 444.435 26.0152 444 24.9999Z" fill="white" stroke="white"/>
<path d="M276 39V2H295V6H281V18H293V21H281V39L276 39Z" fill="white"/>
<path fill-rule="evenodd" clip-rule="evenodd" d="M232 21C232 24.2203 232.663 26.0703 234 29C235.169 31.562 236.002 33.0152 238 35C239.385 36.3762 240.26 37.1134 242 38C243.816 38.9256 247 39.5 247 39.5C247 39.5 249.5 40 251 40C252.497 40 253.452 39.8092 254.99 39.502L255 39.5C255.185 39.463 255.363 39.4279 255.536 39.394C257.224 39.0618 258.352 38.8399 260 38C261.74 37.1134 262.615 36.3762 264 35C265.998 33.0152 266.831 31.562 268 29C269.337 26.0703 269.5 24.2203 269.5 21C269.5 17.7797 268.827 15.4341 267.5 12.5C267.355 12.1797 267.226 11.8881 267.107 11.6184C266.362 9.93478 265.996 9.10586 264.5 7.5C264.196 7.17322 263.932 6.87713 263.69 6.60446C262.724 5.51766 262.088 4.8029 260.5 4C258.835 3.15852 257.705 2.93541 255.993 2.59768C255.834 2.56631 255.67 2.53394 255.5 2.5C253.956 2.19165 252.574 2 251 2C249.426 2 248.044 2.19165 246.5 2.5C246.202 2.55959 245.921 2.61291 245.653 2.66377C244.126 2.95369 243.019 3.16366 241.5 4C239.682 5.00093 238.421 5.9871 237 7.5C235.182 9.43578 234.5 10.5 233.5 13C232.304 15.99 232 17.7797 232 21ZM245.001 35.4999C247.142 36.5275 248.625 37.0348 251.001 36.9999C253.183 36.9678 254.565 36.5095 256.501 35.4999C258.459 34.4782 259.184 33.774 260.501 31.9999C262.062 29.896 262.696 28.9929 263.501 26.4999C264.112 24.6049 264.436 22.9901 264.501 20.9999C264.577 18.635 264.178 17.2882 263.509 15.0267L263.501 14.9999L263.482 14.9359C262.701 12.2995 262.339 11.0763 260.501 8.99988C259.206 7.53792 258.28 6.80469 256.501 5.99988C254.512 5.10008 253.183 4.53198 251.001 4.49988C248.625 4.46495 247.121 4.92823 245.001 5.99988C242.783 7.12107 241.933 7.96856 240.501 9.99988C239.243 11.7842 238.689 12.9281 238.001 14.9999C237.252 17.2542 236.924 18.6256 237.001 20.9999C237.065 22.9901 237.442 25.0884 238.001 26.9999C238.712 29.4365 239.009 29.9461 240.501 31.9999C241.882 33.9022 242.881 34.4827 245.001 35.4999Z" fill="white"/>
<path d="M255 39.5L254.99 39.502M255 39.5C255.185 39.463 255.363 39.4279 255.536 39.394C257.224 39.0618 258.352 38.8399 260 38C261.74 37.1134 262.615 36.3762 264 35C265.998 33.0152 266.831 31.562 268 29C269.337 26.0703 269.5 24.2203 269.5 21C269.5 17.7797 268.827 15.4341 267.5 12.5C267.355 12.1797 267.226 11.8881 267.107 11.6184C266.362 9.93478 265.996 9.10586 264.5 7.5C264.196 7.17322 263.932 6.87713 263.69 6.60446C262.724 5.51766 262.088 4.8029 260.5 4C258.835 3.15852 257.705 2.93541 255.993 2.59768C255.834 2.56631 255.67 2.53394 255.5 2.5C253.956 2.19165 252.574 2 251 2C249.426 2 248.044 2.19165 246.5 2.5C246.202 2.55959 245.921 2.61291 245.653 2.66377C244.126 2.95369 243.019 3.16366 241.5 4C239.682 5.00093 238.421 5.9871 237 7.5C235.182 9.43578 234.5 10.5 233.5 13C232.304 15.99 232 17.7797 232 21C232 24.2203 232.663 26.0703 234 29C235.169 31.562 236.002 33.0152 238 35C239.385 36.3762 240.26 37.1134 242 38C243.816 38.9256 247 39.5 247 39.5C247 39.5 249.5 40 251 40C252.497 40 253.452 39.8092 254.99 39.502M255 39.5C254.997 39.5007 254.993 39.5014 254.99 39.502M276 2V39L281 39V21H293V18H281V6H295V2H276ZM251.001 36.9999C248.625 37.0348 247.142 36.5275 245.001 35.4999C242.881 34.4827 241.882 33.9022 240.501 31.9999C239.009 29.9461 238.712 29.4365 238.001 26.9999C237.442 25.0884 237.065 22.9901 237.001 20.9999C236.924 18.6256 237.252 17.2542 238.001 14.9999C238.689 12.9281 239.243 11.7842 240.501 9.99988C241.933 7.96856 242.783 7.12107 245.001 5.99988C247.121 4.92823 248.625 4.46495 251.001 4.49988C253.183 4.53198 254.512 5.10008 256.501 5.99988C258.28 6.80469 259.206 7.53792 260.501 8.99988C262.339 11.0763 262.701 12.2995 263.482 14.9359L263.501 14.9999L263.509 15.0267C264.178 17.2882 264.577 18.635 264.501 20.9999C264.436 22.9901 264.112 24.6049 263.501 26.4999C262.696 28.9929 262.062 29.896 260.501 31.9999C259.184 33.774 258.459 34.4782 256.501 35.4999C254.565 36.5095 253.183 36.9678 251.001 36.9999Z" stroke="white"/>
<path fill-rule="evenodd" clip-rule="evenodd" d="M184.5 39.5H188L193 24.5H205L210.5 39.5H216L201 2H199L184.5 39.5ZM204.5 22H194L199 9L204.5 22Z" fill="white"/>
<path d="M142 39.5H145.5L148.5 12.5L160 37H162L173.5 12.5L176.5 39.5H180L176.5 2.49999H174.5L161 29L147.5 2.49999H145.5L142 39.5Z" fill="white"/>
<path d="M137 5.49999L135.5 9.49999C135.5 9.49999 132.463 6.49451 130 5.49999C127.797 4.61047 126.375 4.49999 124 4.49999C121.625 4.49999 120.157 4.50557 118 5.49999C114.863 6.94613 113.624 8.95075 112 12C110.218 15.3465 109.911 17.7097 110 21.5C110.08 24.9091 110.328 27.0277 112 30C113.624 32.8882 114.978 34.6413 118 36C120.118 36.9523 121.559 36.97 123.843 36.998L124 37C126.568 37.0321 128.433 37.5238 130.5 36C131.167 35.5085 132 34.5 132 34.5V22.5H136.5V36.5C136.5 36.5 133.027 38.8078 130.5 39.5C128.045 40.1727 126.543 40.1232 124 40C121.627 39.8851 120.26 39.7326 118 39C115.258 38.1108 113.665 37.404 111.5 35.5C109.182 33.461 108.291 31.8044 107 29C105.732 26.2465 105.226 24.5228 105 21.5C104.72 17.7545 104.878 15.3878 106.5 12C107.936 9.00071 109.037 7.54666 111.5 5.49999C113.717 3.65752 115.438 2.89043 118 1.99999C120.244 1.22024 121.626 1.09585 124 0.99999C126.349 0.905107 127.733 0.875002 130 1.49999C133.035 2.33689 137 5.49999 137 5.49999Z" fill="white"/>
<path d="M93.5 1.99999V39H97.5V1.99999H93.5Z" fill="white"/>
<path d="M55 39H59V9.99999L81 39H85V1.99999H81V31L59 1.99999H55V39Z" fill="white"/>
<path d="M30 1.99999V39H49V35H35V21H47V18H35V5.99999H49V1.99999H30Z" fill="white"/>
<path d="M124 37C126.568 37.0321 128.433 37.5238 130.5 36C131.167 35.5085 132 34.5 132 34.5V22.5H136.5V36.5C136.5 36.5 133.027 38.8078 130.5 39.5C128.045 40.1727 126.543 40.1232 124 40C121.627 39.8851 120.26 39.7326 118 39C115.258 38.1108 113.665 37.404 111.5 35.5C109.182 33.461 108.291 31.8044 107 29C105.732 26.2465 105.226 24.5228 105 21.5C104.72 17.7545 104.878 15.3878 106.5 12C107.936 9.00071 109.037 7.54666 111.5 5.49999C113.717 3.65752 115.438 2.89043 118 1.99999C120.244 1.22024 121.626 1.09585 124 0.99999C126.349 0.905107 127.733 0.875002 130 1.49999C133.035 2.33689 137 5.49999 137 5.49999L135.5 9.49999C135.5 9.49999 132.463 6.49451 130 5.49999C127.797 4.61047 126.375 4.49999 124 4.49999C121.625 4.49999 120.157 4.50557 118 5.49999C114.863 6.94613 113.624 8.95075 112 12C110.218 15.3465 109.911 17.7097 110 21.5C110.08 24.9091 110.328 27.0277 112 30C113.624 32.8882 114.978 34.6413 118 36C120.118 36.9523 121.559 36.97 123.843 36.998M124 37L123.843 36.998M124 37C123.947 36.9993 123.895 36.9987 123.843 36.998M30 1.99999V39H49V35H35V21H47V18H35V5.99999H49V1.99999H30ZM55 39H59V9.99999L81 39H85V1.99999H81V31L59 1.99999H55V39ZM93.5 1.99999V39H97.5V1.99999H93.5ZM142 39.5H145.5L148.5 12.5L160 37H162L173.5 12.5L176.5 39.5H180L176.5 2.49999H174.5L161 29L147.5 2.49999H145.5L142 39.5ZM184.5 39.5H188L193 24.5H205L210.5 39.5H216L201 2H199L184.5 39.5ZM194 22H204.5L199 9L194 22Z" stroke="white"/>
<path d="M312 39V2H331V6H317V18H329V21H317V39H312Z" fill="white"/>
<path d="M338 2V39H357V35H343V21H355V18H343V6H357V2H338Z" fill="white"/>
<path fill-rule="evenodd" clip-rule="evenodd" d="M362.5 39H366L371 24.5H383L388.5 39H394L379 2H377L362.5 39ZM382.5 22H372L377 9L382.5 22Z" fill="white"/>
<path fill-rule="evenodd" clip-rule="evenodd" d="M398 2V39H403V21H404.5H409C409 21 412.862 21.4582 415 20.5C417.146 19.5385 418.387 18.5709 419.5 16.5C420.465 14.7045 420.868 13.5343 421 11.5C421.168 8.90032 420.533 7.10609 419 5C417.851 3.42142 415 2 415 2H398ZM403 7V18H413C413 18 415.188 16.4444 416 15C416.696 13.7608 416.953 12.9207 417 11.5C417.054 9.89072 416.961 8.79173 416 7.5C415.159 6.37041 413 5.5 413 5.5H403V7Z" fill="white"/>
<path d="M421 39.5L409 21H404.5L415.5 39.5H421Z" fill="white"/>
<path d="M403 18C403 13.3137 403 7 403 7M403 18H413C413 18 415.188 16.4444 416 15C416.696 13.7608 416.953 12.9207 417 11.5C417.054 9.89072 416.961 8.79173 416 7.5C415.159 6.37041 413 5.5 413 5.5H403V7M403 18V7M409 21C409 21 412.862 21.4582 415 20.5C417.146 19.5385 418.387 18.5709 419.5 16.5C420.465 14.7045 420.868 13.5343 421 11.5C421.168 8.90032 420.533 7.10609 419 5C417.851 3.42142 415 2 415 2H398V39H403V21H404.5M409 21L421 39.5H415.5L404.5 21M409 21H404.5M338 2V39H357V35H343V21H355V18H343V6H357V2H338ZM312 2V39H317V21H329V18H317V6H331V2H312ZM362.5 39H366L371 24.5H383L388.5 39H394L379 2H377L362.5 39ZM372 22H382.5L377 9L372 22Z" stroke="white"/>
</svg>
