<svg width="56" height="102" viewBox="0 0 56 102" fill="none" xmlns="http://www.w3.org/2000/svg">
<path d="M3 37H16V23C16 23 17.1642 16.6405 19 13C20.268 10.4855 20.9668 8.94848 23 7C25.2732 4.82153 27.0803 4.17842 30 3C32.9863 1.79469 38 1 38 1H53C53 1 54.0634 1.06338 54.5 1.5C54.9366 1.93662 55 3 55 3V18C55 18 54.8637 19.001 54.5 19.5C54.0853 20.069 53 20.5 53 20.5H42C42 20.5 39.5365 21.3151 38.5 22.5C37.5209 23.6192 37 26 37 26V37H53C53 37 53.6856 37.5459 54 38C54.2485 38.359 54.5 39 54.5 39V55.5C54.5 55.5 54.4366 56.5634 54 57C53.5634 57.4366 52.5 57.5 52.5 57.5H37V99C37 99 36.9366 100.063 36.5 100.5C36.0634 100.937 35 101 35 101H18C18 101 16.9366 100.937 16.5 100.5C16.0634 100.063 16 99 16 99V57.5H3C3 57.5 1.93662 57.4366 1.5 57C1.06338 56.5634 1 55.5 1 55.5V39C1 39 1.06338 37.9366 1.5 37.5C1.93662 37.0634 3 37 3 37Z" fill="white" stroke="white"/>
</svg>
