<svg width="102" height="102" viewBox="0 0 102 102" fill="none" xmlns="http://www.w3.org/2000/svg">
<path fill-rule="evenodd" clip-rule="evenodd" d="M1.5 28C1.26316 32.5 1 51 1 51C1 51 0.99998 67 1.5 73C2.00002 79 3.84745 87.1546 10 93C15.5208 98.2452 23.5 100.263 28 100.5C32.5 100.737 51 101 51 101C51 101 67 101 73 100.5C79 100 87.1546 98.1526 93 92C98.2452 86.4792 100.263 78.5 100.5 74C100.737 69.5 101 51 101 51C101 51 101 35 100.5 29C100 23 98.1526 14.8454 92 9C86.4792 3.7548 78.5 1.73685 74 1.5C69.5 1.26315 51 1 51 1C51 1 35 0.99998 29 1.5C23 2.00002 14.8454 3.84745 9 10C3.7548 15.5208 1.73684 23.5 1.5 28ZM34.5 51C34.5 51 34.5 44.5 39.5 39.5C44.5 34.5 51 34.5 51 34.5C51 34.5 57.5 34.5 62.5 39.5C67.5 44.5 67.5 51 67.5 51C67.5 51 67.5 57.5 62.5 62.5C57.5 67.5 51 67.5 51 67.5C51 67.5 44.5 67.5 39.5 62.5C34.5 57.5 34.5 51 34.5 51ZM29 10.5C32.5 10 51 10 51 10C51 10 70.5 10.5 74 11C77.5 11.5 82.8047 12.6545 86.5 16.5C90.1429 20.291 91 25.5 91.5 29C92 32.5 92 51 92 51C92 51 91.5 70.5 91 74C90.5 77.5 89.3455 82.8047 85.5 86.5C81.709 90.1429 76.5 91 73 91.5C69.5 92 51 92 51 92C51 92 31.5 91.5 28 91C24.5 90.5 19.1953 89.3455 15.5 85.5C11.8571 81.709 11 76.5 10.5 73C10 69.5 10 51 10 51C10 51 10.5 31.5 11 28C11.5 24.5 12.6545 19.1953 16.5 15.5C20.291 11.8571 25.5 11 29 10.5ZM25.5 51C25.5 51 25.5 41 33 33C40.5 25 51 25.5 51 25.5C51 25.5 61 25.5 69 33C77 40.5 76.5 51 76.5 51C76.5 51 76.5 61 69 69C61.5 77 51 76.5 51 76.5C51 76.5 41 76.5 33 69C25 61.5 25.5 51 25.5 51Z" fill="white"/>
<path d="M78 18C74.6863 18 72 20.6863 72 24C72 27.3137 74.6863 30 78 30C81.3137 30 84 27.3137 84 24C84 20.6863 81.3137 18 78 18Z" fill="white"/>
<path fill-rule="evenodd" clip-rule="evenodd" d="M1.5 28C1.26316 32.5 1 51 1 51C1 51 0.99998 67 1.5 73C2.00002 79 3.84745 87.1546 10 93C15.5208 98.2452 23.5 100.263 28 100.5C32.5 100.737 51 101 51 101C51 101 67 101 73 100.5C79 100 87.1546 98.1526 93 92C98.2452 86.4792 100.263 78.5 100.5 74C100.737 69.5 101 51 101 51C101 51 101 35 100.5 29C100 23 98.1526 14.8454 92 9C86.4792 3.7548 78.5 1.73685 74 1.5C69.5 1.26315 51 1 51 1C51 1 35 0.99998 29 1.5C23 2.00002 14.8454 3.84745 9 10C3.7548 15.5208 1.73684 23.5 1.5 28ZM34.5 51C34.5 51 34.5 44.5 39.5 39.5C44.5 34.5 51 34.5 51 34.5C51 34.5 57.5 34.5 62.5 39.5C67.5 44.5 67.5 51 67.5 51C67.5 51 67.5 57.5 62.5 62.5C57.5 67.5 51 67.5 51 67.5C51 67.5 44.5 67.5 39.5 62.5C34.5 57.5 34.5 51 34.5 51ZM29 10.5C32.5 10 51 10 51 10C51 10 70.5 10.5 74 11C77.5 11.5 82.8047 12.6545 86.5 16.5C90.1429 20.291 91 25.5 91.5 29C92 32.5 92 51 92 51C92 51 91.5 70.5 91 74C90.5 77.5 89.3455 82.8047 85.5 86.5C81.709 90.1429 76.5 91 73 91.5C69.5 92 51 92 51 92C51 92 31.5 91.5 28 91C24.5 90.5 19.1953 89.3455 15.5 85.5C11.8571 81.709 11 76.5 10.5 73C10 69.5 10 51 10 51C10 51 10.5 31.5 11 28C11.5 24.5 12.6545 19.1953 16.5 15.5C20.291 11.8571 25.5 11 29 10.5ZM25.5 51C25.5 51 25.5 41 33 33C40.5 25 51 25.5 51 25.5C51 25.5 61 25.5 69 33C77 40.5 76.5 51 76.5 51C76.5 51 76.5 61 69 69C61.5 77 51 76.5 51 76.5C51 76.5 41 76.5 33 69C25 61.5 25.5 51 25.5 51Z" stroke="white"/>
<path d="M78 18C74.6863 18 72 20.6863 72 24C72 27.3137 74.6863 30 78 30C81.3137 30 84 27.3137 84 24C84 20.6863 81.3137 18 78 18Z" stroke="white"/>
</svg>
