<svg width="102" height="72" viewBox="0 0 102 72" fill="none" xmlns="http://www.w3.org/2000/svg">
<path fill-rule="evenodd" clip-rule="evenodd" d="M1.00005 22.0001C0.682981 27.4583 1.00005 36.0002 1.00005 36.0002V50.0002C1.00005 50.0002 0.526864 56.3624 2.00005 60.0002C3.05711 62.6104 3.96685 64.0517 6.00005 66.0002C8.27324 68.1786 10.0306 68.9536 13.0001 70.0002C17.0682 71.434 24.0001 71.0002 24.0001 71.0002L77.8591 71.0004C77.8591 71.0004 84.7909 71.4342 88.8591 70.0004C91.8286 68.9538 93.5859 68.1788 95.8591 66.0004C97.8923 64.0519 98.802 62.6106 99.8591 60.0004C100.887 57.4632 100.857 55.5067 100.822 53.2258C100.806 52.2363 100.79 51.1858 100.859 50.0004C101.176 44.5422 100.859 36.0004 100.859 36.0004V22.0004C100.859 22.0004 101.332 15.6381 99.8591 12.0004C98.802 9.39016 97.8923 7.94883 95.8591 6.00035C93.5859 3.82188 91.8286 3.04695 88.8591 2.00035C84.7909 0.566494 77.8591 1.00035 77.8591 1.00035L24.0001 1.00014C24.0001 1.00014 17.0682 0.566291 13.0001 2.00014C10.0306 3.04674 8.27324 3.82167 6.00005 6.00014C3.96685 7.94862 3.05711 9.38995 2.00005 12.0001C0.972581 14.5373 1.00261 16.4938 1.03761 18.7747C1.05279 19.7642 1.06891 20.8147 1.00005 22.0001ZM39.5 46.5V24C39.5 24 40.176 22.5236 41 22C41.8403 21.4659 43.5 21.5 43.5 21.5C43.5 21.5 65.5 32.5 66 33C66.5 33.5 67 34.4484 67 35.5C67 36.5515 66.5 37.4999 66 37.9999C65.5 38.4999 43.5 49.5 43.5 49.5C43.5 49.5 41.8305 49.5491 41 49C40.0503 48.3719 39.5 46.5 39.5 46.5Z" fill="white" stroke="white"/>
</svg>
