<svg width="96" height="102" viewBox="0 0 96 102" fill="none" xmlns="http://www.w3.org/2000/svg">
<path fill-rule="evenodd" clip-rule="evenodd" d="M95.5 1V62L70 87.5H50L37 101H24V87.5H0.5V18.5L7 1H95.5ZM15 10H87V57.5L72 72.5H48L35 85.5V72.5H15V10Z" fill="white"/>
<path d="M63.5 27H72V53H63.5V27Z" fill="white"/>
<path d="M39.5 27H48V53H39.5V27Z" fill="white"/>
<path fill-rule="evenodd" clip-rule="evenodd" d="M95.5 1V62L70 87.5H50L37 101H24V87.5H0.5V18.5L7 1H95.5ZM15 10H87V57.5L72 72.5H48L35 85.5V72.5H15V10Z" stroke="white"/>
<path d="M63.5 27H72V53H63.5V27Z" stroke="white"/>
<path d="M39.5 27H48V53H39.5V27Z" stroke="white"/>
</svg>
