<svg width="102" height="74" viewBox="0 0 102 74" fill="none" xmlns="http://www.w3.org/2000/svg">
<path fill-rule="evenodd" clip-rule="evenodd" d="M36 6.5C27.9339 8.04449 16 13 16 13C16 13 20.9998 9.33876 24.5 7.5C29.4771 4.88537 38 2.5 38 2.5L37.5 1C37.5 1 29.4058 2.60921 24.5 4.5C20.0185 6.22724 13.5 10 13.5 10C13.5 10 8.26698 20.73 6 28C4.20933 33.7425 3.47303 37.064 2.5 43C1.45337 49.385 1 59.5 1 59.5C1 59.5 5.31118 65.0682 9 67.5C12.3608 69.7156 14.595 70.5228 18.5 71.5C21.9306 72.3585 27.5 72.5 27.5 72.5L33 65.5C33 65.5 27.5195 63.9416 24.5 62C21.5943 60.1316 18 56 18 56C18 56 24.8019 59.8537 29.5 61.5C34.5968 63.286 37.638 63.855 43 64.5C43 64.5 47.8515 64.9886 51 65C54.1457 65.0113 59 64.5594 59 64.5594C64.362 63.9099 67.4032 63.3369 72.5 61.5385C77.1981 59.8807 84 56 84 56C84 56 80.4057 60.1605 77.5 62.042C74.4805 63.9971 69 65.5664 69 65.5664L74.5 72.6154C74.5 72.6154 80.0694 72.4729 83.5 71.6084C87.405 70.6243 89.6392 69.8115 93 67.5804C96.6888 65.1316 101 59.5245 101 59.5245C101 59.5245 100.547 49.7234 99.5 43.2937C98.527 37.3162 97.7907 33.9715 96 28.1888C93.733 20.868 88.5 10.0629 88.5 10.0629C88.5 10.0629 81.9815 6.26379 77.5 4.52448C72.5942 2.62046 64.5 1 64.5 1L64 2.51049C64 2.51049 72.5229 4.91254 77.5 7.54545C81.0002 9.39707 86 13.0839 86 13.0839C86 13.0839 74.0661 8.09375 66 6.53846C66 6.53846 56.8886 5.0074 51 5C45.1129 4.99261 36 6.5 36 6.5ZM35 52C37.6197 52 39.2226 50.9245 41 49C42.9695 46.8675 43.5701 44.9019 43.5 42C43.4344 39.2811 42.925 37.4213 41 35.5C39.2034 33.7068 37.5384 33 35 33C32.4616 33 30.7967 33.7068 29 35.5C27.0751 37.4213 26.5657 39.2811 26.5 42C26.4299 44.9019 27.0306 46.8675 29 49C30.7774 50.9245 32.3803 52 35 52ZM61 49.3357C62.7774 51.2736 64.3803 52.3566 67 52.3566C69.6197 52.3566 71.2226 51.2736 73 49.3357C74.9695 47.1883 75.5701 45.2089 75.5 42.2867C75.4344 39.5488 74.925 37.676 73 35.7413C71.2034 33.9355 69.5384 33.2238 67 33.2238C64.4616 33.2238 62.7966 33.9355 61 35.7413C59.0751 37.676 58.5657 39.5488 58.5 42.2867C58.4299 45.2089 59.0306 47.1883 61 49.3357Z" fill="white" stroke="white"/>
</svg>
