<svg width="101" height="100" viewBox="0 0 101 100" fill="none" xmlns="http://www.w3.org/2000/svg">
<path d="M85.5 42H61.5C59.5 42 57.8714 43.7774 58 46C58.1199 48.0722 59.5 50 61.5 50H85.5C85.5 50 80.5 55.5 80 56C79.5 56.5 78.7742 59.4801 80 61C81.25 62.55 84 62.5 85 62C86 61.5 98.5 49 99 48.5C99.5 48 100 47.0515 100 46C100 44.9485 99.5 44 99 43.5C98.5 43 86 30 85 29.5C84 29 81.25 28.95 80 30.5C78.7742 32.0199 78.9459 34.4459 80 35.5C81.0541 36.5541 85.5 42 85.5 42Z" fill="white"/>
<path d="M71 58.75C69.0474 58.75 67 60 67 62V83.5H49V91H71C71.5 91 72.7565 90.7435 73.5 90C74.2435 89.2565 74.5 88 74.5 87.5V62C74.5 60.5 72.8518 58.75 71 58.75Z" fill="white"/>
<path d="M1.5 1.5C0.882527 2.11747 0.5 3.5 0.5 3.5V87.5C0.5 88.5 1.13554 89.259 2 90C2.66301 90.5683 4 91 4 91C4 91 45 99 46 99C47 99 47.6325 98.8675 48.25 98.25C48.8675 97.6325 49 96.5 49 96V91V83.5V16.5C49 16.5 48.9806 15.1459 48.5 14.5C48.0797 13.9352 47 13.5 47 13.5L29.5 7.75H67V29.5C67 31 69.0515 32.8771 71 32.75C72.7964 32.6328 74.5 31 74.5 29.5V3.5L73.5 1.5L71.5 0.5H3.5C3.5 0.5 2.11747 0.882527 1.5 1.5Z" fill="white"/>
<path d="M0.5 3.5C0.5 3.5 0.882527 2.11747 1.5 1.5C2.11747 0.882527 3.5 0.5 3.5 0.5H71.5L73.5 1.5L74.5 3.5M0.5 3.5C0.5 3.5 0.5 86.5 0.5 87.5M0.5 3.5V87.5M0.5 87.5C0.5 88.5 1.13554 89.259 2 90C2.66301 90.5683 4 91 4 91C4 91 45 99 46 99C47 99 47.6325 98.8675 48.25 98.25C48.8675 97.6325 49 96.5 49 96M49 96C49 95.9249 49 94.0806 49 91M49 96V91M49 16.5C49 16.5 48.9806 15.1459 48.5 14.5C48.0797 13.9352 47 13.5 47 13.5L29.5 7.75H67M49 16.5C49 16.5 49 61.1134 49 83.5M49 16.5V83.5M67 7.75C67 7.75 67 28 67 29.5M67 7.75V29.5M67 29.5C67 31 69.0515 32.8771 71 32.75C72.7964 32.6328 74.5 31 74.5 29.5M74.5 29.5C74.5 28 74.5 3.5 74.5 3.5M74.5 29.5V3.5M74.5 62C74.5 60.5 72.8518 58.75 71 58.75C69.0474 58.75 67 60 67 62V83.5H49M74.5 62C74.5 62 74.5 87 74.5 87.5M74.5 62V87.5M49 83.5C49 86.431 49 88.981 49 91M49 83.5V91M74.5 87.5C74.5 88 74.2435 89.2565 73.5 90C72.7565 90.7435 71.5 91 71 91M71 91C70.5 91 49 91 49 91M71 91H49M85.5 42C85.5 42 63.5 42 61.5 42M85.5 42C85.5 42 81.0541 36.5541 80 35.5C78.9459 34.4459 78.7742 32.0199 80 30.5C81.25 28.95 84 29 85 29.5C86 30 98.5 43 99 43.5C99.5 44 100 44.9485 100 46C100 47.0515 99.5 48 99 48.5C98.5 49 86 61.5 85 62C84 62.5 81.25 62.55 80 61C78.7742 59.4801 79.5 56.5 80 56C80.5 55.5 85.5 50 85.5 50M85.5 42H61.5M61.5 42C59.5 42 57.8714 43.7774 58 46C58.1199 48.0722 59.5 50 61.5 50M61.5 50C63.5 50 85.5 50 85.5 50M61.5 50H85.5" stroke="white"/>
</svg>
