<svg width="100" height="100" viewBox="0 0 100 100" fill="none" xmlns="http://www.w3.org/2000/svg">
<path fill-rule="evenodd" clip-rule="evenodd" d="M50 100C77.6142 100 100 77.6142 100 50C100 22.3858 77.6142 0 50 0C22.3858 0 0 22.3858 0 50C0 77.6142 22.3858 100 50 100ZM25.5 33.5C25.5 30.873 27.5 28.5 30 28.5H71C73.5 28.5 75.5 30.873 75.5 33.5C75.5 36.127 73.5 38.5 71 38.5H30C27.5 38.5 25.5 36.127 25.5 33.5ZM30 45C27.5 45 25.5 47.373 25.5 50C25.5 52.627 27.5 55 30 55H71C73.5 55 75.5 52.627 75.5 50C75.5 47.373 73.5 45 71 45H30ZM25.5 66.5C25.5 63.873 27.5 61.5 30 61.5H71C73.5 61.5 75.5 63.873 75.5 66.5C75.5 69.127 73.5 71.5 71 71.5H30C27.5 71.5 25.5 69.127 25.5 66.5Z" fill="white"/>
</svg>
