<svg width="200" height="200" viewBox="0 0 200 200" fill="none" xmlns="http://www.w3.org/2000/svg">
<path fill-rule="evenodd" clip-rule="evenodd" d="M100 200C155.228 200 200 155.228 200 100C200 44.7715 155.228 0 100 0C44.7715 0 0 44.7715 0 100C0 155.228 44.7715 200 100 200ZM112.778 173.5V26.5H139.778C139.778 26.5 147.676 27.8741 152.278 30C156.752 32.0667 159.196 33.6152 162.778 37C166.014 40.0582 167.616 42.1072 169.778 46C171.963 49.9354 173.136 55.3883 173.793 58.4426C174.001 59.4114 174.157 60.1388 174.278 60.5C174.778 62 174.278 139.5 174.278 139.5C174.278 139.5 172.628 148.801 169.778 154C166.652 159.702 164.044 162.686 158.778 166.5C152.522 171.031 142.278 173.5 140.278 173.5H112.778ZM140.278 92.5C144.559 92.4072 148.324 93.8991 151.278 97C154.054 99.9148 155.278 103.475 155.278 107.5C155.278 111.525 154.054 114.085 151.278 117C148.324 120.101 144.56 121.503 140.278 121.5C136.507 121.498 134.08 120.524 131.278 118C127.963 115.014 125.698 111.96 125.778 107.5C125.855 103.218 127.181 100.458 130.278 97.5C133.059 94.843 136.432 92.5834 140.278 92.5ZM97.5 26.5H60C58 26.5 47.7563 28.9692 41.5 33.5C36.2335 37.3141 33.6257 40.298 30.5 46C27.65 51.1991 26 60.5 26 60.5C26 60.5 25.5 138 26 139.5C26.1204 139.861 26.2769 140.589 26.4852 141.557C27.1421 144.612 28.3149 150.065 30.5 154C32.6615 157.893 34.2637 159.942 37.5 163C41.082 166.385 43.5261 167.933 48 170C52.602 172.126 60.5 173.5 60.5 173.5H97.5V26.5ZM85.5 38.5V162H65C65 162 60.3482 161.787 57.5 161C53.9638 160.023 51.9986 159.114 49 157C45.4997 154.533 43.6885 152.681 41.5 149C39.1962 145.125 38 139.5 38 138V62.5C38 60 40.2428 53.3294 43 49.5C45.2589 46.3626 46.7782 44.6368 50 42.5C53.8093 39.9736 57 38.5 61 38.5H85.5ZM53 80C55.9536 83.1009 58.7186 84.5928 63 84.5C66.8453 84.4166 69.219 83.157 72 80.5C75.0964 77.5417 76.4231 74.7817 76.5 70.5C76.5801 66.0395 75.3148 62.9857 72 60C69.198 57.4761 66.7711 56.5023 63 56.5C58.7176 56.4973 55.9536 57.8991 53 61C50.2237 63.9148 49 66.4746 49 70.5C49 74.5254 50.2237 77.0852 53 80Z" fill="white"/>
<path fill-rule="evenodd" clip-rule="evenodd" d="M112.778 26.5V173.5H140.278C142.278 173.5 152.522 171.031 158.778 166.5C164.044 162.686 166.652 159.702 169.778 154C172.628 148.801 174.278 139.5 174.278 139.5C174.278 139.5 174.778 62 174.278 60.5C174.157 60.1388 174.001 59.4114 173.793 58.4426C173.136 55.3883 171.963 49.9354 169.778 46C167.616 42.1072 166.014 40.0582 162.778 37C159.196 33.6152 156.752 32.0667 152.278 30C147.676 27.8741 139.778 26.5 139.778 26.5H112.778ZM151.278 97C148.324 93.8991 144.559 92.4072 140.278 92.5C136.432 92.5834 133.059 94.843 130.278 97.5C127.181 100.458 125.855 103.218 125.778 107.5C125.698 111.96 127.963 115.014 131.278 118C134.08 120.524 136.507 121.498 140.278 121.5C144.56 121.503 148.324 120.101 151.278 117C154.054 114.085 155.278 111.525 155.278 107.5C155.278 103.475 154.054 99.9148 151.278 97Z" fill="black"/>
<path fill-rule="evenodd" clip-rule="evenodd" d="M97.5 173.5V26.5H60C58 26.5 47.7563 28.9692 41.5 33.5C36.2335 37.3141 33.6257 40.298 30.5 46C27.65 51.1991 26 60.5 26 60.5C26 60.5 25.5 138 26 139.5C26.1204 139.861 26.2769 140.589 26.4852 141.557C27.1421 144.612 28.3149 150.065 30.5 154C32.6615 157.893 34.2637 159.942 37.5 163C41.082 166.385 43.5261 167.933 48 170C52.602 172.126 60.5 173.5 60.5 173.5H97.5ZM85.5 38.5V162H65C65 162 60.3482 161.787 57.5 161C53.9638 160.023 51.9986 159.114 49 157C45.4997 154.533 43.6885 152.681 41.5 149C39.1962 145.125 38 139.5 38 138V62.5C38 60 40.2428 53.3294 43 49.5C45.2589 46.3626 46.7782 44.6368 50 42.5C53.8093 39.9736 57 38.5 61 38.5H85.5Z" fill="black"/>
<path d="M63 84.5C58.7186 84.5928 55.9536 83.1009 53 80C50.2237 77.0852 49 74.5254 49 70.5C49 66.4746 50.2237 63.9148 53 61C55.9536 57.8991 58.7176 56.4973 63 56.5C66.7711 56.5023 69.198 57.4761 72 60C75.3148 62.9857 76.5801 66.0395 76.5 70.5C76.4231 74.7817 75.0964 77.5417 72 80.5C69.219 83.157 66.8453 84.4166 63 84.5Z" fill="black"/>
<path d="M26 60.5C25.25 60.4952 25.25 60.4955 25.25 60.4961L25.25 60.4987L25.2499 60.5093L25.2497 60.5514L25.2486 60.7176L25.2445 61.3661C25.241 61.9341 25.2359 62.7674 25.2295 63.8285C25.2168 65.9507 25.1992 68.9841 25.1797 72.6288C25.1406 79.9182 25.0938 89.6531 25.0625 99.4351C25.0313 109.217 25.0156 119.047 25.0391 126.526C25.0508 130.265 25.0723 133.419 25.1065 135.686C25.1236 136.819 25.144 137.735 25.1681 138.393C25.1801 138.721 25.1933 138.992 25.2079 139.195C25.2152 139.297 25.2234 139.388 25.2328 139.466C25.2399 139.524 25.2542 139.634 25.2885 139.737C25.3921 140.048 25.5378 140.719 25.752 141.715L25.7604 141.754C26.414 144.793 27.605 150.331 29.8443 154.364C32.0437 158.325 33.6936 160.435 36.9849 163.545C40.6339 166.993 43.1485 168.585 47.6855 170.681C50.0576 171.777 53.2432 172.665 55.8014 173.277C57.0875 173.584 58.228 173.824 59.0473 173.988C59.4571 174.069 59.7869 174.132 60.0149 174.174C60.0705 174.185 60.1201 174.194 60.1632 174.202C60.2085 174.21 60.2468 174.217 60.2777 174.222L60.3467 174.235L60.3648 174.238L60.3695 174.239L60.3708 174.239L60.3712 174.239C60.3714 174.239 60.3714 174.239 60.5 173.5L60.3714 174.239L60.4352 174.25H60.5H97.5H98.25V173.5V26.5V25.75H97.5H97.4996H97.4984H97.4964H97.4935H97.4899H97.4855H97.4803H97.4743H97.4675H97.4599H97.4515H97.4424H97.4325H97.4218H97.4103H97.3981H97.3851H97.3714H97.3569H97.3416H97.3256H97.3088H97.2913H97.2731H97.2541H97.2344H97.214H97.1928H97.1709H97.1482H97.1249H97.1008H97.076H97.0506H97.0244H96.9975H96.9699H96.9416H96.9126H96.8829H96.8525H96.8214H96.7897H96.7573H96.7242H96.6904H96.6559H96.6208H96.585H96.5486H96.5115H96.4737H96.4353H96.3963H96.3566H96.3162H96.2753H96.2336H96.1914H96.1485H96.105H96.0608H96.0161H95.9707H95.9247H95.8781H95.8309H95.7831H95.7347H95.6856H95.636H95.5858H95.535H95.4836H95.4316H95.3791H95.326H95.2722H95.218H95.1631H95.1077H95.0517H94.9952H94.9381H94.8804H94.8223H94.7635H94.7042H94.6444H94.584H94.5231H94.4617H94.3997H94.3372H94.2742H94.2107H94.1466H94.0821H94.017H93.9514H93.8854H93.8188H93.7517H93.6841H93.6161H93.5475H93.4785H93.4089H93.3389H93.2684H93.1975H93.1261H93.0542H92.9818H92.909H92.8357H92.762H92.6878H92.6132H92.5381H92.4626H92.3867H92.3103H92.2334H92.1562H92.0785H92.0004H91.9219H91.8429H91.7636H91.6838H91.6036H91.523H91.4421H91.3607H91.2789H91.1967H91.1142H91.0312H90.9479H90.8642H90.7801H90.6956H90.6107H90.5255H90.44H90.354H90.2677H90.1811H90.0941H90.0067H89.919H89.831H89.7426H89.6539H89.5648H89.4754H89.3857H89.2957H89.2053H89.1146H89.0236H88.9323H88.8407H88.7488H88.6566H88.564H88.4712H88.3781H88.2847H88.191H88.097H88.0027H87.9081H87.8133H87.7182H87.6229H87.5272H87.4313H87.3352H87.2388H87.1421H87.0452H86.948H86.8506H86.7529H86.6551H86.5569H86.4586H86.36H86.2611H86.1621H86.0629H85.9634H85.8637H85.7638H85.6637H85.5633H85.4628H85.3621H85.2612H85.1601H85.0588H84.9573H84.8557H84.7538H84.6518H84.5496H84.4472H84.3447H84.242H84.1391H84.0361H83.9329H83.8296H83.7261H83.6225H83.5187H83.4148H83.3108H83.2066H83.1023H82.9979H82.8933H82.7886H82.6838H82.5789H82.4739H82.3687H82.2635H82.1582H82.0527H81.9472H81.8415H81.7358H81.63H81.5241H81.4181H81.312H81.2059H81.0997H80.9934H80.8871H80.7807H80.6742H80.5677H80.4611H80.3545H80.2478H80.1411H80.0343H79.9275H79.8207H79.7138H79.6069H79.5H79.3931H79.2861H79.1791H79.0721H78.9651H78.8581H78.7511H78.6441H78.537H78.43H78.323H78.216H78.1091H78.0021H77.8952H77.7882H77.6814H77.5745H77.4677H77.3609H77.2541H77.1474H77.0407H76.9341H76.8275H76.721H76.6146H76.5082H76.4018H76.2956H76.1894H76.0833H75.9772H75.8712H75.7654H75.6595H75.5538H75.4482H75.3427H75.2372H75.1319H75.0267H74.9216H74.8166H74.7117H74.6069H74.5022H74.3977H74.2933H74.189H74.0848H73.9808H73.8769H73.7732H73.6696H73.5661H73.4628H73.3597H73.2567H73.1538H73.0512H72.9486H72.8463H72.7441H72.6422H72.5403H72.4387H72.3372H72.236H72.1349H72.034H71.9333H71.8329H71.7326H71.6325H71.5326H71.433H71.3335H71.2343H71.1353H71.0365H70.938H70.8396H70.7415H70.6437H70.5461H70.4487H70.3516H70.2547H70.1581H70.0617H69.9656H69.8697H69.7741H69.6788H69.5837H69.489H69.3945H69.3002H69.2063H69.1126H69.0193H68.9262H68.8334H68.7409H68.6487H68.5569H68.4653H68.374H68.2831H68.1925H68.1021H68.0122H67.9225H67.8332H67.7442H67.6555H67.5672H67.4792H67.3915H67.3042H67.2173H67.1307H67.0444H66.9586H66.8731H66.7879H66.7031H66.6187H66.5347H66.451H66.3678H66.2849H66.2024H66.1202H66.0385H65.9572H65.8763H65.7958H65.7157H65.6359H65.5567H65.4778H65.3993H65.3213H65.2437H65.1665H65.0897H65.0134H64.9375H64.8621H64.7871H64.7125H64.6384H64.5648H64.4916H64.4188H64.3465H64.2747H64.2034H64.1325H64.0621H63.9922H63.9227H63.8537H63.7853H63.7173H63.6498H63.5828H63.5163H63.4503H63.3848H63.3198H63.2553H63.1913H63.1279H63.065H63.0026H62.9407H62.8793H62.8185H62.7582H62.6985H62.6393H62.5806H62.5225H62.465H62.408H62.3515H62.2956H62.2403H62.1855H62.1314H62.0777H62.0247H61.9722H61.9204H61.8691H61.8184H61.7682H61.7187H61.6698H61.6215H61.5737H61.5266H61.4801H61.4342H61.3889H61.3443H61.3002H61.2568H61.2141H61.1719H61.1304H61.0895H61.0493H61.0097H60.9707H60.9324H60.8947H60.8577H60.8214H60.7857H60.7507H60.7164H60.6827H60.6497H60.6174H60.5858H60.5548H60.5245H60.495H60.4661H60.4379H60.4104H60.3836H60.3575H60.3322H60.3075H60.2835H60.2603H60.2378H60.216H60.1949H60.1746H60.155H60.1361H60.118H60.1006H60.084H60.0681H60.053H60.0386H60.025H60.0121H60C59.408 25.75 58.32 25.9227 56.9803 26.225C55.6167 26.5327 53.9301 26.9895 52.1114 27.5886C48.486 28.7829 44.2781 30.562 41.0601 32.8926C35.7022 36.7728 33.0206 39.8416 29.8423 45.6395C28.37 48.3254 27.2265 52.0266 26.4551 55.012C26.0671 56.5134 25.7692 57.8503 25.5682 58.8121C25.4677 59.2931 25.3913 59.6809 25.3399 59.949C25.3142 60.0831 25.2947 60.1873 25.2816 60.2584L25.2668 60.3398L25.2629 60.3611L25.2619 60.3667L25.2617 60.3683L25.2616 60.3687C25.2615 60.3689 25.2615 60.369 26 60.5ZM26 60.5L25.25 60.4952L25.2504 60.4316L25.2615 60.369L26 60.5ZM96.7242 27.25H96.75V172.75H60.566L60.5427 172.746C60.5137 172.741 60.4777 172.734 60.4349 172.726C60.3926 172.719 60.3436 172.71 60.2884 172.699C60.0665 172.658 59.7433 172.597 59.3407 172.517C58.5354 172.356 57.4138 172.12 56.1501 171.818C53.6088 171.211 50.5444 170.349 48.3145 169.319C43.9037 167.282 41.53 165.776 38.0151 162.455C34.8337 159.449 33.2793 157.46 31.1557 153.636C29.0345 149.816 27.8805 144.478 27.2184 141.4L27.2028 141.327C27.0133 140.446 26.8552 139.711 26.724 139.301C26.7234 139.296 26.7226 139.29 26.7217 139.284C26.7166 139.241 26.7105 139.177 26.7041 139.088C26.6913 138.91 26.6789 138.66 26.6671 138.338C26.6436 137.696 26.6234 136.793 26.6064 135.663C26.5722 133.405 26.5508 130.259 26.5391 126.521C26.5156 119.047 26.5312 109.221 26.5625 99.4399C26.5937 89.6594 26.6406 79.9256 26.6797 72.6368C26.6992 68.9925 26.7168 65.9594 26.7295 63.8375C26.7358 62.7765 26.741 61.9433 26.7445 61.3754L26.7486 60.7271L26.7496 60.5698L26.7568 60.5301C26.7693 60.4624 26.7881 60.3617 26.8131 60.2314C26.863 59.9706 26.9378 59.591 27.0365 59.1189C27.2339 58.1743 27.5266 56.861 27.9074 55.3873C28.6735 52.4225 29.78 48.8737 31.1577 46.3605C34.2308 40.7543 36.7648 37.8553 41.9399 34.1074C44.9781 31.9071 49.0203 30.1862 52.5808 29.0133C54.3551 28.4287 55.9954 27.985 57.3105 27.6882C58.6496 27.386 59.592 27.25 60 27.25H60.0121H60.025H60.0386H60.053H60.0681H60.084H60.1006H60.118H60.1361H60.155H60.1746H60.1949H60.216H60.2378H60.2603H60.2835H60.3075H60.3322H60.3575H60.3836H60.4104H60.4379H60.4661H60.495H60.5245H60.5548H60.5858H60.6174H60.6497H60.6827H60.7164H60.7507H60.7857H60.8214H60.8577H60.8947H60.9324H60.9707H61.0097H61.0493H61.0895H61.1304H61.1719H61.2141H61.2568H61.3002H61.3443H61.3889H61.4342H61.4801H61.5266H61.5737H61.6215H61.6698H61.7187H61.7682H61.8184H61.8691H61.9204H61.9722H62.0247H62.0777H62.1314H62.1855H62.2403H62.2956H62.3515H62.408H62.465H62.5225H62.5806H62.6393H62.6985H62.7582H62.8185H62.8793H62.9407H63.0026H63.065H63.1279H63.1913H63.2553H63.3198H63.3848H63.4503H63.5163H63.5828H63.6498H63.7173H63.7853H63.8537H63.9227H63.9922H64.0621H64.1325H64.2034H64.2747H64.3465H64.4188H64.4916H64.5648H64.6384H64.7125H64.7871H64.8621H64.9375H65.0134H65.0897H65.1665H65.2437H65.3213H65.3993H65.4778H65.5567H65.6359H65.7157H65.7958H65.8763H65.9572H66.0385H66.1202H66.2024H66.2849H66.3678H66.451H66.5347H66.6187H66.7031H66.7879H66.8731H66.9586H67.0444H67.1307H67.2173H67.3042H67.3915H67.4792H67.5672H67.6555H67.7442H67.8332H67.9225H68.0122H68.1021H68.1925H68.2831H68.374H68.4653H68.5569H68.6487H68.7409H68.8334H68.9262H69.0193H69.1126H69.2063H69.3002H69.3945H69.489H69.5837H69.6788H69.7741H69.8697H69.9656H70.0617H70.1581H70.2547H70.3516H70.4487H70.5461H70.6437H70.7415H70.8396H70.938H71.0365H71.1353H71.2343H71.3335H71.433H71.5326H71.6325H71.7326H71.8329H71.9333H72.034H72.1349H72.236H72.3372H72.4387H72.5403H72.6422H72.7441H72.8463H72.9486H73.0512H73.1538H73.2567H73.3597H73.4628H73.5661H73.6696H73.7732H73.8769H73.9808H74.0848H74.189H74.2933H74.3977H74.5022H74.6069H74.7117H74.8166H74.9216H75.0267H75.1319H75.2372H75.3427H75.4482H75.5538H75.6595H75.7654H75.8712H75.9772H76.0833H76.1894H76.2956H76.4018H76.5082H76.6146H76.721H76.8275H76.9341H77.0407H77.1474H77.2541H77.3609H77.4677H77.5745H77.6814H77.7882H77.8952H78.0021H78.1091H78.216H78.323H78.43H78.537H78.6441H78.7511H78.8581H78.9651H79.0721H79.1791H79.2861H79.3931H79.5H79.6069H79.7138H79.8207H79.9275H80.0343H80.1411H80.2478H80.3545H80.4611H80.5677H80.6742H80.7807H80.8871H80.9934H81.0997H81.2059H81.312H81.4181H81.5241H81.63H81.7358H81.8415H81.9472H82.0527H82.1582H82.2635H82.3687H82.4739H82.5789H82.6838H82.7886H82.8933H82.9979H83.1023H83.2066H83.3108H83.4148H83.5187H83.6225H83.7261H83.8296H83.9329H84.0361H84.1391H84.242H84.3447H84.4472H84.5496H84.6518H84.7538H84.8557H84.9573H85.0588H85.1601H85.2612H85.3621H85.4628H85.5633H85.6637H85.7638H85.8637H85.9634H86.0629H86.1621H86.2611H86.36H86.4586H86.5569H86.6551H86.7529H86.8506H86.948H87.0452H87.1421H87.2388H87.3352H87.4313H87.5272H87.6229H87.7182H87.8133H87.9081H88.0027H88.097H88.191H88.2847H88.3781H88.4712H88.564H88.6566H88.7488H88.8407H88.9323H89.0236H89.1146H89.2053H89.2957H89.3857H89.4754H89.5648H89.6539H89.7426H89.831H89.919H90.0067H90.0941H90.1811H90.2677H90.354H90.44H90.5255H90.6107H90.6956H90.7801H90.8642H90.9479H91.0312H91.1142H91.1967H91.2789H91.3607H91.4421H91.523H91.6036H91.6838H91.7636H91.8429H91.9219H92.0004H92.0785H92.1562H92.2334H92.3103H92.3867H92.4626H92.5381H92.6132H92.6878H92.762H92.8357H92.909H92.9818H93.0542H93.1261H93.1975H93.2684H93.3389H93.4089H93.4785H93.5475H93.6161H93.6841H93.7517H93.8188H93.8854H93.9514H94.017H94.0821H94.1466H94.2107H94.2742H94.3372H94.3997H94.4617H94.5231H94.584H94.6444H94.7042H94.7635H94.8223H94.8804H94.9381H94.9952H95.0517H95.1077H95.1631H95.218H95.2722H95.326H95.3791H95.4316H95.4836H95.535H95.5858H95.636H95.6856H95.7347H95.7831H95.8309H95.8781H95.9247H95.9707H96.0161H96.0608H96.105H96.1485H96.1914H96.2336H96.2753H96.3162H96.3566H96.3963H96.4353H96.4737H96.5115H96.5486H96.585H96.6208H96.6559H96.6904H96.7242ZM85.5 162.75H86.25V162V38.5V37.75H85.5H85.4998H85.4991H85.4979H85.4963H85.4942H85.4916H85.4886H85.4851H85.4812H85.4768H85.472H85.4667H85.461H85.4548H85.4481H85.4411H85.4336H85.4256H85.4172H85.4084H85.3991H85.3894H85.3792H85.3687H85.3577H85.3463H85.3344H85.3221H85.3094H85.2963H85.2828H85.2688H85.2544H85.2396H85.2244H85.2088H85.1928H85.1764H85.1595H85.1423H85.1246H85.1066H85.0881H85.0693H85.05H85.0304H85.0104H84.99H84.9691H84.948H84.9264H84.9044H84.882H84.8593H84.8362H84.8127H84.7888H84.7646H84.74H84.715H84.6896H84.6639H84.6378H84.6113H84.5845H84.5573H84.5298H84.5019H84.4736H84.445H84.416H84.3867H84.357H84.327H84.2967H84.2659H84.2349H84.2035H84.1718H84.1397H84.1073H84.0745H84.0414H84.008H83.9743H83.9402H83.9058H83.8711H83.836H83.8007H83.765H83.729H83.6926H83.656H83.6191H83.5818H83.5442H83.5063H83.4681H83.4296H83.3908H83.3517H83.3123H83.2726H83.2326H83.1923H83.1517H83.1108H83.0697H83.0282H82.9865H82.9444H82.9021H82.8595H82.8166H82.7735H82.73H82.6863H82.6423H82.5981H82.5535H82.5087H82.4637H82.4183H82.3727H82.3269H82.2808H82.2344H82.1877H82.1408H82.0937H82.0463H81.9986H81.9507H81.9026H81.8542H81.8056H81.7567H81.7076H81.6582H81.6086H81.5588H81.5087H81.4584H81.4079H81.3571H81.3061H81.2549H81.2035H81.1518H81.0999H81.0478H80.9955H80.943H80.8902H80.8372H80.7841H80.7307H80.6771H80.6233H80.5693H80.5151H80.4607H80.4061H80.3513H80.2963H80.2411H80.1857H80.1301H80.0743H80.0184H79.9622H79.9059H79.8494H79.7927H79.7358H79.6788H79.6215H79.5641H79.5066H79.4488H79.3909H79.3328H79.2746H79.2161H79.1575H79.0988H79.0399H78.9809H78.9216H78.8623H78.8027H78.7431H78.6832H78.6233H78.5631H78.5029H78.4425H78.3819H78.3212H78.2604H78.1994H78.1383H78.0771H78.0157H77.9542H77.8926H77.8308H77.769H77.707H77.6448H77.5826H77.5202H77.4578H77.3952H77.3325H77.2696H77.2067H77.1437H77.0805H77.0173H76.9539H76.8905H76.8269H76.7633H76.6995H76.6357H76.5717H76.5077H76.4436H76.3793H76.315H76.2506H76.1862H76.1216H76.057H75.9923H75.9275H75.8626H75.7977H75.7327H75.6676H75.6025H75.5372H75.472H75.4066H75.3412H75.2757H75.2102H75.1446H75.079H75.0133H74.9475H74.8817H74.8159H74.75H74.6841H74.6181H74.552H74.486H74.4199H74.3537H74.2875H74.2213H74.1551H74.0888H74.0225H73.9562H73.8898H73.8234H73.757H73.6906H73.6241H73.5577H73.4912H73.4247H73.3582H73.2917H73.2251H73.1586H73.0921H73.0255H72.959H72.8924H72.8259H72.7593H72.6928H72.6262H72.5597H72.4932H72.4267H72.3602H72.2937H72.2272H72.1607H72.0943H72.0279H71.9615H71.8951H71.8288H71.7625H71.6962H71.6299H71.5637H71.4975H71.4313H71.3652H71.2991H71.2331H71.1671H71.1011H71.0352H70.9694H70.9035H70.8378H70.7721H70.7064H70.6408H70.5753H70.5098H70.4443H70.379H70.3137H70.2484H70.1833H70.1181H70.0531H69.9881H69.9233H69.8584H69.7937H69.729H69.6645H69.6H69.5356H69.4712H69.407H69.3428H69.2788H69.2148H69.1509H69.0871H69.0234H68.9598H68.8963H68.833H68.7697H68.7065H68.6434H68.5804H68.5176H68.4548H68.3922H68.3297H68.2673H68.205H68.1428H68.0808H68.0189H67.9571H67.8954H67.8339H67.7724H67.7112H67.65H67.589H67.5281H67.4674H67.4068H67.3463H67.286H67.2258H67.1658H67.1059H67.0462H66.9866H66.9272H66.8679H66.8088H66.7498H66.691H66.6324H66.5739H66.5156H66.4575H66.3995H66.3417H66.2841H66.2266H66.1693H66.1122H66.0553H65.9985H65.9419H65.8855H65.8293H65.7733H65.7175H65.6618H65.6064H65.5511H65.496H65.4411H65.3865H65.332H65.2777H65.2236H65.1698H65.1161H65.0626H65.0094H64.9564H64.9035H64.8509H64.7985H64.7463H64.6944H64.6426H64.5911H64.5398H64.4888H64.4379H64.3873H64.3369H64.2868H64.2369H64.1872H64.1377H64.0885H64.0396H63.9908H63.9424H63.8941H63.8461H63.7984H63.7509H63.7037H63.6567H63.61H63.5635H63.5173H63.4713H63.4256H63.3802H63.335H63.2902H63.2455H63.2012H63.1571H63.1133H63.0697H63.0265H62.9835H62.9408H62.8984H62.8563H62.8144H62.7728H62.7316H62.6906H62.6499H62.6095H62.5694H62.5296H62.4901H62.4509H62.4119H62.3733H62.335H62.297H62.2594H62.222H62.1849H62.1482H62.1117H62.0756H62.0398H62.0043H61.9692H61.9343H61.8998H61.8656H61.8318H61.7982H61.765H61.7322H61.6996H61.6675H61.6356H61.6041H61.5729H61.5421H61.5116H61.4814H61.4517H61.4222H61.3931H61.3644H61.336H61.308H61.2803H61.253H61.226H61.1994H61.1732H61.1474H61.1219H61.0968H61.072H61.0476H61.0236H61C56.7838 37.75 53.444 39.3159 49.5855 41.875C46.2641 44.0778 44.6831 45.8788 42.3913 49.0618C40.9587 51.0516 39.6807 53.745 38.7623 56.2394C37.8525 58.7102 37.25 61.1087 37.25 62.5V62.5154V62.5324V62.551V62.5712V62.5929V62.6161V62.6409V62.6672V62.695V62.7244V62.7553V62.7877V62.8216V62.857V62.8939V62.9323V62.9721V63.0135V63.0563V63.1005V63.1463V63.1934V63.242V63.2921V63.3436V63.3965V63.4508V63.5065V63.5636V63.6222V63.6821V63.7434V63.8061V63.8702V63.9356V64.0024V64.0706V64.1401V64.2109V64.2831V64.3566V64.4314V64.5076V64.5851V64.6638V64.7439V64.8253V64.9079V64.9919V65.0771V65.1636V65.2513V65.3403V65.4305V65.522V65.6148V65.7087V65.8039V65.9003V65.9979V66.0967V66.1968V66.298V66.4004V66.504V66.6087V66.7147V66.8218V66.93V67.0394V67.15V67.2616V67.3745V67.4884V67.6035V67.7196V67.8369V67.9553V68.0748V68.1953V68.317V68.4397V68.5635V68.6884V68.8143V68.9412V69.0693V69.1983V69.3284V69.4595V69.5916V69.7248V69.8589V69.9941V70.1302V70.2673V70.4054V70.5445V70.6846V70.8256V70.9676V71.1106V71.2544V71.3993V71.545V71.6917V71.8393V71.9878V72.1372V72.2876V72.4388V72.5909V72.7439V72.8978V73.0525V73.2081V73.3646V73.5219V73.6801V73.8391V73.9989V74.1596V74.3211V74.4834V74.6465V74.8104V74.9751V75.1406V75.3069V75.474V75.6418V75.8104V75.9798V76.1499V76.3207V76.4923V76.6647V76.8377V77.0115V77.186V77.3612V77.5371V77.7137V77.891V78.069V78.2477V78.427V78.607V78.7877V78.969V79.1509V79.3335V79.5168V79.7006V79.8851V80.0702V80.2559V80.4422V80.6291V80.8167V81.0047V81.1934V81.3826V81.5725V81.7628V81.9537V82.1452V82.3372V82.5298V82.7228V82.9164V83.1106V83.3052V83.5003V83.6959V83.8921V84.0887V84.2858V84.4833V84.6813V84.8798V85.0788V85.2781V85.478V85.6782V85.8789V86.0801V86.2816V86.4835V86.6859V86.8886V87.0918V87.2953V87.4992V87.7035V87.9082V88.1132V88.3186V88.5243V88.7303V88.9367V89.1435V89.3505V89.5579V89.7656V89.9735V90.1818V90.3904V90.5993V90.8084V91.0178V91.2275V91.4375V91.6477V91.8581V92.0688V92.2798V92.4909V92.7023V92.9139V93.1258V93.3378V93.55V93.7625V93.9751V94.1879V94.4008V94.614V94.8272V95.0407V95.2543V95.468V95.6819V95.896V96.1101V96.3244V96.5387V96.7532V96.9678V97.1825V97.3972V97.6121V97.827V98.042V98.257V98.4721V98.6873V98.9025V99.1178V99.333V99.5483V99.7636V99.979V100.194V100.41V100.625V100.84V101.056V101.271V101.486V101.701V101.917V102.132V102.347V102.562V102.777V102.992V103.206V103.421V103.636V103.85V104.065V104.279V104.493V104.707V104.921V105.135V105.349V105.562V105.775V105.989V106.202V106.414V106.627V106.84V107.052V107.264V107.476V107.688V107.899V108.11V108.321V108.532V108.743V108.953V109.163V109.373V109.582V109.791V110V110.209V110.417V110.625V110.833V111.041V111.248V111.455V111.661V111.867V112.073V112.279V112.484V112.689V112.893V113.097V113.301V113.504V113.707V113.909V114.111V114.313V114.514V114.715V114.915V115.115V115.315V115.514V115.713V115.911V116.109V116.306V116.503V116.699V116.895V117.09V117.285V117.479V117.673V117.866V118.059V118.251V118.443V118.634V118.824V119.014V119.204V119.392V119.581V119.768V119.955V120.142V120.328V120.513V120.698V120.882V121.065V121.248V121.43V121.612V121.793V121.973V122.152V122.331V122.51V122.687V122.864V123.04V123.215V123.39V123.564V123.737V123.91V124.082V124.253V124.423V124.593V124.762V124.93V125.097V125.264V125.429V125.594V125.759V125.922V126.084V126.246V126.407V126.567V126.726V126.885V127.043V127.199V127.355V127.51V127.664V127.818V127.97V128.121V128.272V128.422V128.571V128.718V128.865V129.012V129.157V129.301V129.444V129.586V129.728V129.868V130.007V130.146V130.283V130.42V130.555V130.69V130.823V130.956V131.087V131.217V131.347V131.475V131.602V131.729V131.854V131.978V132.101V132.223V132.344V132.464V132.583V132.7V132.817V132.932V133.046V133.16V133.272V133.383V133.492V133.601V133.708V133.815V133.92V134.024V134.127V134.228V134.329V134.428V134.526V134.623V134.718V134.812V134.906V134.997V135.088V135.177V135.266V135.352V135.438V135.522V135.606V135.687V135.768V135.847V135.925V136.001V136.077V136.151V136.223V136.294V136.364V136.433V136.5V136.566V136.631V136.694V136.755V136.816V136.875V136.932V136.989V137.043V137.097V137.149V137.199V137.248V137.296V137.342V137.387V137.43V137.472V137.512V137.551V137.588V137.624V137.659V137.691V137.723V137.753V137.781V137.808V137.833V137.857V137.879V137.9V137.919V137.936V137.952V137.966V137.979V137.99V138C37.25 138.857 37.5732 140.721 38.1643 142.813C38.7609 144.925 39.6575 147.369 40.8553 149.383C43.1032 153.164 44.9905 155.091 48.5679 157.613C51.6396 159.778 53.6839 160.724 57.3003 161.723C58.7891 162.134 60.717 162.389 62.2436 162.541C63.0129 162.618 63.6917 162.67 64.1784 162.703C64.4219 162.719 64.6176 162.731 64.753 162.738C64.8207 162.742 64.8733 162.745 64.9093 162.746L64.9505 162.749L64.9614 162.749L64.9644 162.749L64.9652 162.749L64.9655 162.749C64.9656 162.749 64.9657 162.749 65 162L64.9657 162.749L64.9828 162.75H65H85.5ZM84.74 39.25H84.75V161.25H65.018L64.9848 161.248C64.9513 161.247 64.9012 161.244 64.8361 161.24C64.706 161.233 64.516 161.222 64.2789 161.206C63.8044 161.174 63.1422 161.124 62.3926 161.049C60.8812 160.898 59.0591 160.653 57.6997 160.277C54.2436 159.322 52.3576 158.449 49.4321 156.387C46.009 153.974 44.2739 152.198 42.1447 148.617C41.0387 146.757 40.1853 144.45 39.6078 142.406C39.0249 140.342 38.75 138.643 38.75 138V137.99V137.979V137.966V137.952V137.936V137.919V137.9V137.879V137.857V137.833V137.808V137.781V137.753V137.723V137.691V137.659V137.624V137.588V137.551V137.512V137.472V137.43V137.387V137.342V137.296V137.248V137.199V137.149V137.097V137.043V136.989V136.932V136.875V136.816V136.755V136.694V136.631V136.566V136.5V136.433V136.364V136.294V136.223V136.151V136.077V136.001V135.925V135.847V135.768V135.687V135.606V135.522V135.438V135.352V135.266V135.177V135.088V134.997V134.906V134.812V134.718V134.623V134.526V134.428V134.329V134.228V134.127V134.024V133.92V133.815V133.708V133.601V133.492V133.383V133.272V133.16V133.046V132.932V132.817V132.7V132.583V132.464V132.344V132.223V132.101V131.978V131.854V131.729V131.602V131.475V131.347V131.217V131.087V130.956V130.823V130.69V130.555V130.42V130.283V130.146V130.007V129.868V129.728V129.586V129.444V129.301V129.157V129.012V128.865V128.718V128.571V128.422V128.272V128.121V127.97V127.818V127.664V127.51V127.355V127.199V127.043V126.885V126.726V126.567V126.407V126.246V126.084V125.922V125.759V125.594V125.429V125.264V125.097V124.93V124.762V124.593V124.423V124.253V124.082V123.91V123.737V123.564V123.39V123.215V123.04V122.864V122.687V122.51V122.331V122.152V121.973V121.793V121.612V121.43V121.248V121.065V120.882V120.698V120.513V120.328V120.142V119.955V119.768V119.581V119.392V119.204V119.014V118.824V118.634V118.443V118.251V118.059V117.866V117.673V117.479V117.285V117.09V116.895V116.699V116.503V116.306V116.109V115.911V115.713V115.514V115.315V115.115V114.915V114.715V114.514V114.313V114.111V113.909V113.707V113.504V113.301V113.097V112.893V112.689V112.484V112.279V112.073V111.867V111.661V111.455V111.248V111.041V110.833V110.625V110.417V110.209V110V109.791V109.582V109.373V109.163V108.953V108.743V108.532V108.321V108.11V107.899V107.688V107.476V107.264V107.052V106.84V106.627V106.414V106.202V105.989V105.775V105.562V105.349V105.135V104.921V104.707V104.493V104.279V104.065V103.85V103.636V103.421V103.206V102.992V102.777V102.562V102.347V102.132V101.917V101.701V101.486V101.271V101.056V100.84V100.625V100.41V100.194V99.979V99.7636V99.5483V99.333V99.1178V98.9025V98.6873V98.4721V98.257V98.042V97.827V97.6121V97.3972V97.1825V96.9678V96.7532V96.5387V96.3244V96.1101V95.896V95.6819V95.468V95.2543V95.0407V94.8272V94.614V94.4008V94.1879V93.9751V93.7625V93.55V93.3378V93.1258V92.9139V92.7023V92.4909V92.2798V92.0688V91.8581V91.6477V91.4375V91.2275V91.0178V90.8084V90.5993V90.3904V90.1818V89.9735V89.7656V89.5579V89.3505V89.1435V88.9367V88.7303V88.5243V88.3186V88.1132V87.9082V87.7035V87.4992V87.2953V87.0918V86.8886V86.6859V86.4835V86.2816V86.0801V85.8789V85.6782V85.478V85.2781V85.0788V84.8798V84.6813V84.4833V84.2858V84.0887V83.8921V83.6959V83.5003V83.3052V83.1106V82.9164V82.7228V82.5298V82.3372V82.1452V81.9537V81.7628V81.5725V81.3826V81.1934V81.0047V80.8167V80.6291V80.4422V80.2559V80.0702V79.8851V79.7006V79.5168V79.3335V79.1509V78.969V78.7877V78.607V78.427V78.2477V78.069V77.891V77.7137V77.5371V77.3612V77.186V77.0115V76.8377V76.6647V76.4923V76.3207V76.1499V75.9798V75.8104V75.6418V75.474V75.3069V75.1406V74.9751V74.8104V74.6465V74.4834V74.3211V74.1596V73.9989V73.8391V73.6801V73.5219V73.3646V73.2081V73.0525V72.8978V72.7439V72.5909V72.4388V72.2876V72.1372V71.9878V71.8393V71.6917V71.545V71.3993V71.2544V71.1106V70.9676V70.8256V70.6846V70.5445V70.4054V70.2673V70.1302V69.9941V69.8589V69.7248V69.5916V69.4595V69.3284V69.1983V69.0693V68.9412V68.8143V68.6884V68.5635V68.4397V68.317V68.1953V68.0748V67.9553V67.8369V67.7196V67.6035V67.4884V67.3745V67.2616V67.15V67.0394V66.93V66.8218V66.7147V66.6087V66.504V66.4004V66.298V66.1968V66.0967V65.9979V65.9003V65.8039V65.7087V65.6148V65.522V65.4305V65.3403V65.2513V65.1636V65.0771V64.9919V64.9079V64.8253V64.7439V64.6638V64.5851V64.5076V64.4314V64.3566V64.2831V64.2109V64.1401V64.0706V64.0024V63.9356V63.8702V63.8061V63.7434V63.6821V63.6222V63.5636V63.5065V63.4508V63.3965V63.3436V63.2921V63.242V63.1934V63.1463V63.1005V63.0563V63.0135V62.9721V62.9323V62.8939V62.857V62.8216V62.7877V62.7553V62.7244V62.695V62.6672V62.6409V62.6161V62.5929V62.5712V62.551V62.5324V62.5154V62.5C38.75 61.3913 39.2689 59.2045 40.1699 56.7577C41.0621 54.3344 42.2841 51.7778 43.6087 49.9382C45.8348 46.8464 47.2923 45.1958 50.4145 43.125C54.1746 40.6312 57.2162 39.25 61 39.25H61.0236H61.0476H61.072H61.0968H61.1219H61.1474H61.1732H61.1994H61.226H61.253H61.2803H61.308H61.336H61.3644H61.3931H61.4222H61.4517H61.4814H61.5116H61.5421H61.5729H61.6041H61.6356H61.6675H61.6996H61.7322H61.765H61.7982H61.8318H61.8656H61.8998H61.9343H61.9692H62.0043H62.0398H62.0756H62.1117H62.1482H62.1849H62.222H62.2594H62.297H62.335H62.3733H62.4119H62.4509H62.4901H62.5296H62.5694H62.6095H62.6499H62.6906H62.7316H62.7728H62.8144H62.8563H62.8984H62.9408H62.9835H63.0265H63.0697H63.1133H63.1571H63.2012H63.2455H63.2902H63.335H63.3802H63.4256H63.4713H63.5173H63.5635H63.61H63.6567H63.7037H63.7509H63.7984H63.8461H63.8941H63.9424H63.9908H64.0396H64.0885H64.1377H64.1872H64.2369H64.2868H64.3369H64.3873H64.4379H64.4888H64.5398H64.5911H64.6426H64.6944H64.7463H64.7985H64.8509H64.9035H64.9564H65.0094H65.0626H65.1161H65.1698H65.2236H65.2777H65.332H65.3865H65.4411H65.496H65.5511H65.6064H65.6618H65.7175H65.7733H65.8293H65.8855H65.9419H65.9985H66.0553H66.1122H66.1693H66.2266H66.2841H66.3417H66.3995H66.4575H66.5156H66.5739H66.6324H66.691H66.7498H66.8088H66.8679H66.9272H66.9866H67.0462H67.1059H67.1658H67.2258H67.286H67.3463H67.4068H67.4674H67.5281H67.589H67.65H67.7112H67.7724H67.8339H67.8954H67.9571H68.0189H68.0808H68.1428H68.205H68.2673H68.3297H68.3922H68.4548H68.5176H68.5804H68.6434H68.7065H68.7697H68.833H68.8963H68.9598H69.0234H69.0871H69.1509H69.2148H69.2788H69.3428H69.407H69.4712H69.5356H69.6H69.6645H69.729H69.7937H69.8584H69.9233H69.9881H70.0531H70.1181H70.1833H70.2484H70.3137H70.379H70.4443H70.5098H70.5753H70.6408H70.7064H70.7721H70.8378H70.9035H70.9694H71.0352H71.1011H71.1671H71.2331H71.2991H71.3652H71.4313H71.4975H71.5637H71.6299H71.6962H71.7625H71.8288H71.8951H71.9615H72.0279H72.0943H72.1607H72.2272H72.2937H72.3602H72.4267H72.4932H72.5597H72.6262H72.6928H72.7593H72.8259H72.8924H72.959H73.0255H73.0921H73.1586H73.2251H73.2917H73.3582H73.4247H73.4912H73.5577H73.6241H73.6906H73.757H73.8234H73.8898H73.9562H74.0225H74.0888H74.1551H74.2213H74.2875H74.3537H74.4199H74.486H74.552H74.6181H74.6841H74.75H74.8159H74.8817H74.9475H75.0133H75.079H75.1446H75.2102H75.2757H75.3412H75.4066H75.472H75.5372H75.6025H75.6676H75.7327H75.7977H75.8626H75.9275H75.9923H76.057H76.1216H76.1862H76.2506H76.315H76.3793H76.4436H76.5077H76.5717H76.6357H76.6995H76.7633H76.8269H76.8905H76.9539H77.0173H77.0805H77.1437H77.2067H77.2696H77.3325H77.3952H77.4578H77.5202H77.5826H77.6448H77.707H77.769H77.8308H77.8926H77.9542H78.0157H78.0771H78.1383H78.1994H78.2604H78.3212H78.3819H78.4425H78.5029H78.5631H78.6233H78.6832H78.7431H78.8027H78.8623H78.9216H78.9809H79.0399H79.0988H79.1575H79.2161H79.2746H79.3328H79.3909H79.4488H79.5066H79.5641H79.6215H79.6788H79.7358H79.7927H79.8494H79.9059H79.9622H80.0184H80.0743H80.1301H80.1857H80.2411H80.2963H80.3513H80.4061H80.4607H80.5151H80.5693H80.6233H80.6771H80.7307H80.7841H80.8372H80.8902H80.943H80.9955H81.0478H81.0999H81.1518H81.2035H81.2549H81.3061H81.3571H81.4079H81.4584H81.5087H81.5588H81.6086H81.6582H81.7076H81.7567H81.8056H81.8542H81.9026H81.9507H81.9986H82.0463H82.0937H82.1408H82.1877H82.2344H82.2808H82.3269H82.3727H82.4183H82.4637H82.5087H82.5535H82.5981H82.6423H82.6863H82.73H82.7735H82.8166H82.8595H82.9021H82.9444H82.9865H83.0282H83.0697H83.1108H83.1517H83.1923H83.2326H83.2726H83.3123H83.3517H83.3908H83.4296H83.4681H83.5063H83.5442H83.5818H83.6191H83.656H83.6926H83.729H83.765H83.8007H83.836H83.8711H83.9058H83.9402H83.9743H84.008H84.0414H84.0745H84.1073H84.1397H84.1718H84.2035H84.2349H84.2659H84.2967H84.327H84.357H84.3867H84.416H84.445H84.4736H84.5019H84.5298H84.5573H84.5845H84.6113H84.6378H84.6639H84.6896H84.715H84.74ZM112.778 25.75H112.028V26.5V173.5V174.25H112.778H140.278C140.87 174.25 141.958 174.077 143.297 173.775C144.661 173.467 146.348 173.011 148.166 172.411C151.792 171.217 156 169.438 159.218 167.107C164.576 163.227 167.257 160.158 170.435 154.361C171.908 151.675 173.051 147.973 173.823 144.988C174.211 143.487 174.509 142.15 174.71 141.188C174.81 140.707 174.887 140.319 174.938 140.051C174.964 139.917 174.983 139.813 174.996 139.742L175.011 139.66L175.015 139.639L175.016 139.633L175.016 139.632L175.016 139.631C175.016 139.631 175.016 139.631 174.278 139.5L175.016 139.631L175.027 139.568L175.028 139.505L174.783 139.503C175.028 139.505 175.028 139.504 175.028 139.504L175.028 139.501L175.028 139.491L175.028 139.449L175.029 139.282L175.033 138.634C175.037 138.066 175.042 137.233 175.048 136.171C175.061 134.049 175.079 131.016 175.098 127.371C175.137 120.082 175.184 110.347 175.215 100.565C175.247 90.7833 175.262 80.9532 175.239 73.4742C175.227 69.7351 175.205 66.5812 175.171 64.3139C175.154 63.1809 175.134 62.2651 175.11 61.607C175.098 61.2786 175.084 61.0083 175.07 60.8048C175.063 60.7035 175.054 60.6118 175.045 60.5344C175.038 60.4764 175.024 60.3658 174.989 60.2628L174.278 60.5L174.989 60.2628C174.886 59.952 174.74 59.2808 174.526 58.2849L174.517 58.2456C173.864 55.2064 172.673 49.6689 170.433 45.6359C168.234 41.6748 166.584 39.565 163.293 36.4549C159.644 33.0067 157.129 31.415 152.592 29.3191C150.22 28.2233 147.035 27.3346 144.476 26.7233C143.19 26.416 142.05 26.1758 141.23 26.0124C140.821 25.9307 140.491 25.8681 140.263 25.8258C140.149 25.8046 140.06 25.7886 140 25.7777L139.931 25.7654L139.913 25.7623L139.908 25.7614L139.907 25.7612L139.907 25.7611C139.906 25.7611 139.906 25.7611 139.778 26.5L139.906 25.7611L139.843 25.75H139.778H112.778ZM173.529 139.273L173.528 139.43L173.521 139.47C173.508 139.538 173.49 139.638 173.465 139.769C173.415 140.029 173.34 140.409 173.241 140.881C173.044 141.826 172.751 143.139 172.37 144.613C171.604 147.578 170.498 151.126 169.12 153.639C166.047 159.246 163.513 162.145 158.338 165.893C155.3 168.093 151.257 169.814 147.697 170.987C145.923 171.571 144.282 172.015 142.967 172.312C141.628 172.614 140.686 172.75 140.278 172.75H113.528V27.25H139.712L139.735 27.2542C139.76 27.2587 139.791 27.2642 139.827 27.2707C139.872 27.279 139.927 27.289 139.989 27.3006C140.211 27.3418 140.535 27.4031 140.937 27.4834C141.742 27.6441 142.864 27.8803 144.128 28.1823C146.669 28.7895 149.733 29.6508 151.963 30.6809C156.374 32.7184 158.748 34.2237 162.263 37.5451C165.444 40.5514 166.999 42.5395 169.122 46.3641C171.243 50.1844 172.397 55.5222 173.059 58.6003L173.075 58.674C173.265 59.5546 173.423 60.2896 173.554 60.6989C173.554 60.7037 173.555 60.7095 173.556 60.7164C173.561 60.7589 173.567 60.8231 173.574 60.9124C173.586 61.0901 173.599 61.3401 173.611 61.6618C173.634 62.3037 173.654 63.2068 173.671 64.3365C173.706 66.5946 173.727 69.7414 173.739 73.4789C173.762 80.953 173.747 90.7792 173.715 100.56C173.684 110.341 173.637 120.074 173.598 127.363C173.579 131.008 173.561 134.041 173.548 136.163C173.542 137.223 173.537 138.057 173.533 138.625L173.529 139.273ZM62.9837 83.7502C60.9397 83.7945 59.2958 83.4611 57.8207 82.7687C56.3384 82.0729 54.9825 80.9939 53.5431 79.4827C52.1917 78.0639 51.2533 76.768 50.6471 75.3684C50.0429 73.9735 49.75 72.4325 49.75 70.5C49.75 68.5675 50.0429 67.0265 50.6471 65.6316C51.2533 64.232 52.1917 62.9361 53.5431 61.5173C54.979 60.0098 56.3336 58.9525 57.8164 58.2669C59.2946 57.5835 60.9447 57.2487 62.9995 57.25C64.8186 57.2511 66.2706 57.4862 67.59 58.0028C68.9104 58.5198 70.142 59.3358 71.4981 60.5573C73.0943 61.9951 74.1645 63.4191 74.8329 64.9905C75.5019 66.5632 75.7888 68.3314 75.7501 70.4865C75.7131 72.5498 75.3762 74.204 74.7001 75.6848C74.0228 77.168 72.9845 78.5222 71.4819 79.9577C70.1237 81.2553 68.9031 82.1745 67.5843 82.7844C66.2724 83.391 64.8225 83.7103 62.9837 83.7502ZM52.4569 80.5173C53.9711 82.107 55.4744 83.3244 57.1834 84.1266C58.8996 84.9322 60.7789 85.2983 63.0163 85.2498C65.0228 85.2063 66.6824 84.8541 68.2139 84.1458C69.7386 83.4408 71.0953 82.4016 72.5181 81.0423C74.1119 79.5195 75.2852 78.0145 76.0645 76.3078C76.845 74.5986 77.21 72.732 77.2499 70.5135C77.2913 68.2082 76.9856 66.2191 76.2132 64.4034C75.4404 62.5864 74.2205 60.9907 72.5019 59.4427C71.056 58.1403 69.6731 57.2075 68.1368 56.606C66.5995 56.0042 64.9525 55.7512 63.0005 55.75C60.7729 55.7486 58.8998 56.1134 57.1869 56.9054C55.4787 57.6952 53.9746 58.8893 52.4569 60.4827C51.032 61.9788 49.9704 63.4201 49.2707 65.0354C48.5689 66.6555 48.25 68.4071 48.25 70.5C48.25 72.5929 48.5689 74.3445 49.2707 75.9646C49.9704 77.5799 51.032 79.0212 52.4569 80.5173ZM140.294 93.2498C144.374 93.1614 147.933 94.5757 150.735 97.5173C153.36 100.274 154.528 103.64 154.528 107.5C154.528 109.432 154.235 110.974 153.631 112.368C153.024 113.768 152.086 115.064 150.735 116.483C147.94 119.416 144.382 120.753 140.278 120.75C138.459 120.749 137.007 120.514 135.688 119.997C134.367 119.48 133.136 118.664 131.78 117.443C128.525 114.511 126.453 111.65 126.528 107.513C126.565 105.45 126.902 103.796 127.578 102.315C128.255 100.832 129.293 99.4778 130.796 98.0423C133.534 95.4264 136.733 93.327 140.294 93.2498ZM151.821 96.4827C148.715 93.2224 144.744 91.653 140.262 91.7502C136.132 91.8397 132.584 94.2597 129.76 96.9577C128.166 98.4805 126.993 99.9855 126.213 101.692C125.433 103.401 125.068 105.268 125.028 107.487C124.942 112.271 127.401 115.517 130.776 118.557C132.222 119.86 133.605 120.792 135.141 121.394C136.678 121.996 138.325 122.249 140.277 122.25C144.738 122.253 148.708 120.785 151.821 117.517C153.246 116.021 154.307 114.58 155.007 112.965C155.709 111.344 156.028 109.593 156.028 107.5C156.028 103.31 154.748 99.5557 151.821 96.4827ZM199.25 100C199.25 154.814 154.814 199.25 100 199.25C45.1857 199.25 0.75 154.814 0.75 100C0.75 45.1857 45.1857 0.75 100 0.75C154.814 0.75 199.25 45.1857 199.25 100Z" stroke="black" stroke-width="1.5"/>
</svg>
