<svg width="200" height="200" viewBox="0 0 200 200" fill="none" xmlns="http://www.w3.org/2000/svg">
<path d="M80.5 152.5L106.5 161V55.5C106.5 55.5 107.04 53.1355 108 52C108.909 50.9248 109.603 50.1746 111 50C112.733 49.7834 114.272 50.7583 115.5 52C116.852 53.3672 117 56 117 56.5C117 57.0324 117.095 58.2929 117.209 59.7976C117.309 61.1193 117.424 62.6294 117.5 64C118.337 79.0119 117.5 102.5 117.5 102.5C117.5 102.5 121.378 104.277 124 105C124.336 105.093 124.647 105.182 124.942 105.267C126.329 105.667 127.358 105.964 129 106C132.459 106.076 134.586 105.365 137.5 103.5C140.177 101.787 141.325 100.201 143 97.5C144.758 94.6643 145.283 92.7586 146 89.5C146.67 86.4585 146.616 84.3985 146.545 81.7104C146.527 81.0235 146.508 80.2957 146.5 79.5C146.496 79.1244 146.493 78.7616 146.49 78.4095C146.454 74.3535 146.43 71.7258 145.5 67.5C144.704 63.8818 144.085 61.8488 142.5 58.5L142.462 58.4204C141.626 56.6522 141.138 55.6213 140 54C138.121 51.3233 136.619 50.1122 134.101 48.0816L134 48C131.808 46.2322 130.44 45.4054 128 44C124.289 41.8628 118 39.5 118 39.5L80.5 28.5V152.5Z" fill="black"/>
<path fill-rule="evenodd" clip-rule="evenodd" d="M200 100C200 155.228 155.228 200 100 200C44.7715 200 0 155.228 0 100C0 44.7715 44.7715 0 100 0C155.228 0 200 44.7715 200 100ZM106.5 161L80.5 152.5V28.5L118 39.5C118 39.5 124.289 41.8628 128 44C130.44 45.4054 131.808 46.2322 134 48L134.101 48.0816C136.619 50.1122 138.121 51.3233 140 54C141.138 55.6213 141.626 56.6522 142.462 58.4204L142.5 58.5C144.085 61.8488 144.704 63.8818 145.5 67.5C146.43 71.7258 146.454 74.3535 146.49 78.4095C146.493 78.7616 146.496 79.1244 146.5 79.5C146.508 80.2957 146.527 81.0235 146.545 81.7104C146.616 84.3985 146.67 86.4585 146 89.5C145.283 92.7586 144.758 94.6643 143 97.5C141.325 100.201 140.177 101.787 137.5 103.5C134.586 105.365 132.459 106.076 129 106C127.358 105.964 126.329 105.667 124.942 105.267C124.647 105.182 124.336 105.093 124 105C121.378 104.277 117.5 102.5 117.5 102.5C117.5 102.5 118.337 79.0119 117.5 64C117.424 62.6294 117.309 61.1193 117.209 59.7976C117.095 58.2929 117 57.0324 117 56.5C117 56 116.852 53.3672 115.5 52C114.272 50.7583 112.733 49.7834 111 50C109.603 50.1746 108.909 50.9248 108 52C107.04 53.1355 106.5 55.5 106.5 55.5V161ZM114 145.5V160.5L163 143C163 143 179 136.5 180 136C181 135.5 182.581 134.548 183.5 133C184.322 131.615 184.641 130.604 184.5 129C184.324 126.997 183.422 125.922 182 124.5C179.5 122 175.857 120.321 171.5 118.5C166.475 116.4 163.375 115.88 158 115C152.975 114.178 150.092 114.04 145 114C139.324 113.955 136.104 114.098 130.5 115C123.906 116.061 114 119.5 114 119.5V135L146 124C146 124 149.344 122.956 151.5 123C151.694 123.004 151.881 123.007 152.062 123.011C154.29 123.05 155.688 123.075 158 124C159.416 124.566 160.304 124.988 160.5 126.5C160.75 128.436 157 130 157 130L114 145.5ZM75.5 99.5V116L44.5 126.5C44.5 126.5 40.2496 127.564 40.5 129.5C40.6526 130.68 41.576 131.1 42.6121 131.571C42.904 131.704 43.2049 131.841 43.5 132C45.3559 133 46.8147 132.997 48.6982 132.993C49.1091 132.992 49.5402 132.991 50 133C51.7848 133.036 52.9194 132.872 54.4689 132.647C54.7914 132.6 55.1319 132.551 55.5 132.5C63.6357 131.379 75.5 126 75.5 126V140C75.5 140 66.4015 141.689 60.5 142C56.6002 142.206 54.3998 142.206 50.5 142C44.5985 141.689 41.2512 141.36 35.5 140C31.1129 138.963 28.6126 138.346 24.5 136.5C23.6703 136.128 22.8959 135.83 22.1642 135.55C20.0121 134.724 18.2301 134.04 16.5 132C16.3575 131.832 16.2183 131.671 16.0832 131.514L16.0822 131.513C14.985 130.242 14.1563 129.283 14 127.5C13.8594 125.896 14.1779 124.885 15 123.5C15.6764 122.361 16.4661 121.849 17.4151 121.235C17.7555 121.014 18.1164 120.781 18.5 120.5C21.6709 118.179 27.5 116 27.5 116L75.5 99.5Z" fill="white"/>
<path d="M114 145.5V160.5L163 143C163 143 179 136.5 180 136C181 135.5 182.581 134.548 183.5 133C184.322 131.615 184.641 130.604 184.5 129C184.324 126.997 183.422 125.922 182 124.5C179.5 122 175.857 120.321 171.5 118.5C166.475 116.4 163.375 115.88 158 115C152.975 114.178 150.092 114.04 145 114C139.324 113.955 136.104 114.098 130.5 115C123.906 116.061 114 119.5 114 119.5V135L146 124C146 124 149.344 122.956 151.5 123C151.694 123.004 151.881 123.007 152.062 123.011C154.29 123.05 155.688 123.075 158 124C159.416 124.566 160.304 124.988 160.5 126.5C160.75 128.436 157 130 157 130L114 145.5Z" fill="black"/>
<path d="M75.5 116V99.5L27.5 116C27.5 116 21.6709 118.179 18.5 120.5C18.1164 120.781 17.7555 121.014 17.4151 121.235C16.4661 121.849 15.6764 122.361 15 123.5C14.1779 124.885 13.8594 125.896 14 127.5C14.1563 129.283 14.985 130.242 16.0822 131.513L16.0832 131.514C16.2183 131.671 16.3575 131.832 16.5 132C18.2301 134.04 20.0121 134.724 22.1642 135.55C22.8959 135.83 23.6703 136.128 24.5 136.5C28.6126 138.346 31.1129 138.963 35.5 140C41.2512 141.36 44.5985 141.689 50.5 142C54.3998 142.206 56.6002 142.206 60.5 142C66.4015 141.689 75.5 140 75.5 140V126C75.5 126 63.6357 131.379 55.5 132.5C55.1319 132.551 54.7914 132.6 54.4689 132.647C52.9194 132.872 51.7848 133.036 50 133C49.5402 132.991 49.1091 132.992 48.6982 132.993C46.8147 132.997 45.3559 133 43.5 132C43.2049 131.841 42.904 131.704 42.6121 131.571C41.576 131.1 40.6526 130.68 40.5 129.5C40.2496 127.564 44.5 126.5 44.5 126.5L75.5 116Z" fill="black"/>
<path d="M79.75 152.5V153.044L80.2669 153.213L106.267 161.713L107.25 162.034V161V55.5889C107.251 55.5851 107.252 55.5812 107.253 55.5772C107.268 55.5155 107.292 55.4244 107.323 55.311C107.385 55.0836 107.478 54.7692 107.598 54.4222C107.849 53.7023 108.187 52.94 108.573 52.4843C109.478 51.4142 110.007 50.88 111.093 50.7442C112.475 50.5715 113.793 51.3405 114.967 52.5274C115.498 53.064 115.832 53.9018 116.026 54.744C116.217 55.5704 116.25 56.2957 116.25 56.5C116.25 57.061 116.346 58.3336 116.457 59.7907L116.461 59.8542C116.562 61.1774 116.675 62.6799 116.751 64.0417C117.168 71.5205 117.169 81.124 117.064 88.8693C117.012 92.7395 116.933 96.1413 116.868 98.5753C116.835 99.7923 116.806 100.767 116.785 101.438C116.78 101.601 116.775 101.746 116.771 101.872C116.766 102.005 116.763 102.117 116.76 102.207L116.753 102.406L116.751 102.457L116.751 102.469L116.751 102.472L116.75 102.473C116.75 102.473 116.75 102.473 117.5 102.5L116.75 102.473L116.733 102.973L117.188 103.182L117.222 103.107C117.188 103.182 117.188 103.182 117.188 103.182L117.188 103.182L117.189 103.182L117.191 103.183L117.2 103.187L117.234 103.203C117.264 103.217 117.308 103.236 117.364 103.262C117.477 103.313 117.641 103.386 117.845 103.475C118.254 103.655 118.826 103.902 119.481 104.172C120.784 104.709 122.443 105.349 123.801 105.723C124.132 105.814 124.439 105.903 124.734 105.988L124.75 105.993C126.137 106.392 127.244 106.712 128.984 106.75C130.771 106.789 132.249 106.626 133.671 106.196C135.09 105.767 136.415 105.085 137.904 104.132C140.72 102.33 141.939 100.634 143.637 97.8952C145.461 94.9544 146.008 92.9534 146.732 89.6612C147.422 86.5303 147.366 84.394 147.295 81.707L147.295 81.6908C147.277 81.0034 147.258 80.2812 147.25 79.4922C147.246 79.1172 147.243 78.755 147.24 78.4028L147.24 78.3889C147.203 74.334 147.179 71.6409 146.232 67.3388C145.427 63.6783 144.792 61.5897 143.178 58.1791L143.14 58.0996L143.135 58.0894C142.299 56.3219 141.789 55.2428 140.614 53.5691C138.674 50.8059 137.103 49.5388 134.588 47.5107L134.572 47.4978L134.471 47.4162C132.234 45.6126 130.828 44.7633 128.374 43.3501C126.477 42.2571 123.941 41.1174 121.9 40.2574C120.875 39.8256 119.967 39.4612 119.315 39.2047C118.989 39.0764 118.727 38.975 118.546 38.9055C118.456 38.8708 118.385 38.844 118.338 38.8259L118.283 38.8052L118.269 38.7999L118.265 38.7985L118.264 38.7981L118.264 38.798C118.264 38.7979 118.264 38.7979 118 39.5L118.264 38.7979L118.238 38.7881L118.211 38.7803L80.7111 27.7803L79.75 27.4984V28.5V152.5ZM105.769 55.3329C105.769 55.333 105.769 55.3331 106.5 55.5L105.769 55.3331L105.75 55.4155V55.5V159.966L81.25 151.956V29.5016L117.762 40.2117L117.805 40.2282C117.852 40.2458 117.92 40.2719 118.009 40.3059C118.186 40.374 118.444 40.4739 118.766 40.6005C119.409 40.8537 120.306 41.2136 121.317 41.6397C123.348 42.4954 125.812 43.6056 127.626 44.6499C130.052 46.0475 131.381 46.8518 133.529 48.5838L133.63 48.6654C136.142 50.691 137.572 51.8467 139.386 54.4309C140.485 55.9966 140.95 56.9783 141.784 58.7413L141.822 58.8208C143.378 62.108 143.98 64.0853 144.768 67.6612C145.68 71.8057 145.704 74.3669 145.74 78.4162C145.743 78.7682 145.746 79.1316 145.75 79.5078C145.758 80.309 145.778 81.0414 145.796 81.7268L145.796 81.73C145.866 84.4116 145.916 86.3929 145.268 89.3388C144.558 92.5638 144.056 94.3742 142.363 97.1048C140.711 99.7687 139.635 101.244 137.096 102.868C135.671 103.78 134.476 104.386 133.237 104.76C132.003 105.133 130.688 105.287 129.016 105.25C127.479 105.216 126.53 104.945 125.15 104.547C124.855 104.462 124.541 104.371 124.199 104.277C122.935 103.928 121.345 103.318 120.053 102.785C119.411 102.521 118.849 102.278 118.449 102.102C118.384 102.074 118.323 102.047 118.267 102.022C118.272 101.874 118.277 101.694 118.284 101.485C118.305 100.812 118.335 99.8351 118.367 98.6155C118.433 96.1764 118.511 92.7679 118.564 88.8896C118.668 81.1378 118.669 71.4914 118.249 63.9582C118.172 62.5805 118.057 61.0645 117.957 59.7454L117.957 59.741C117.842 58.2151 117.75 56.9956 117.75 56.5C117.75 56.2043 117.709 55.3632 117.488 54.4064C117.271 53.4655 116.855 52.3033 116.033 51.4726C114.751 50.1762 112.991 48.9953 110.907 49.2558C109.199 49.4693 108.341 50.4355 107.427 51.5157C106.852 52.1955 106.441 53.1832 106.182 53.9294C106.047 54.3155 105.945 54.6632 105.876 54.9146C105.841 55.0406 105.815 55.1431 105.797 55.2151C105.788 55.2511 105.781 55.2796 105.777 55.2995L105.771 55.323L105.77 55.3297L105.769 55.3318L105.769 55.3326L105.769 55.3329ZM75.7406 116.71L76.25 116.538V116V99.5V98.4491L75.2562 98.7907L27.2562 115.291L27.2467 115.294L27.2374 115.297L27.5 116C27.2374 115.297 27.2373 115.298 27.2372 115.298L27.2369 115.298L27.2358 115.298L27.2322 115.299L27.2186 115.305L27.1672 115.324C27.1224 115.341 27.0568 115.366 26.9725 115.399C26.804 115.464 26.5606 115.56 26.259 115.681C25.656 115.925 24.8189 116.273 23.8811 116.696C22.0191 117.534 19.709 118.686 18.057 119.895L18.5 120.5L18.057 119.895C17.6931 120.161 17.3492 120.384 17.0074 120.605L16.9798 120.623C16.037 121.234 15.1214 121.826 14.3551 123.117C13.9261 123.84 13.6033 124.506 13.4137 125.227C13.2225 125.954 13.1767 126.697 13.2529 127.566C13.4304 129.59 14.3987 130.711 15.4773 131.96L15.5145 132.003L15.5156 132.004L15.5177 132.007L15.5181 132.007C15.6527 132.163 15.7888 132.321 15.928 132.485L16.4899 132.009L15.928 132.485C17.7824 134.672 19.7183 135.415 21.8582 136.236L21.8955 136.25C22.6288 136.531 23.3848 136.822 24.1929 137.184C28.3726 139.06 30.9295 139.69 35.3275 140.73C41.1367 142.103 44.5318 142.436 50.4605 142.749C54.3866 142.956 56.6134 142.956 60.5395 142.749C63.5293 142.591 67.3097 142.086 70.3265 141.625C71.8384 141.393 73.165 141.172 74.1137 141.008C74.5882 140.926 74.9683 140.858 75.2302 140.811C75.3611 140.788 75.4624 140.769 75.5312 140.757L75.6096 140.742L75.6298 140.739L75.635 140.738L75.6363 140.738L75.6367 140.737C75.6367 140.737 75.6368 140.737 75.6281 140.691L75.6369 140.737L76.25 140.624V140V126V124.837L75.1903 125.317L75.5 126L75.1903 125.317L75.19 125.317L75.1886 125.318L75.1827 125.32L75.158 125.331L75.0591 125.376C74.9716 125.415 74.8417 125.473 74.6731 125.546C74.3358 125.694 73.844 125.907 73.2281 126.167C71.9959 126.685 70.2685 127.389 68.2889 128.127C64.3149 129.608 59.3793 131.208 55.3976 131.757C55.0265 131.808 54.6835 131.858 54.3613 131.905C52.8168 132.129 51.7342 132.285 50.0153 132.25C49.5467 132.241 49.1083 132.242 48.6991 132.243H48.6965C46.8166 132.247 45.5299 132.242 43.8559 131.34C43.5384 131.169 43.2182 131.023 42.9321 130.893L42.9226 130.889C41.8108 130.383 41.3352 130.111 41.2438 129.404C41.2215 129.232 41.2823 129.019 41.556 128.738C41.8334 128.454 42.2548 128.184 42.7375 127.947C43.2114 127.713 43.6998 127.532 44.0744 127.409C44.2604 127.348 44.4154 127.301 44.5227 127.271C44.5763 127.256 44.6178 127.244 44.6451 127.237L44.675 127.229L44.6815 127.228L44.682 127.228L44.6823 127.228L44.6825 127.227L44.6825 127.227L44.7117 127.22L44.7406 127.21L75.7406 116.71ZM27.7477 116.708L27.7537 116.706L74.75 100.551V115.462L44.2854 125.781L44.2596 125.788C44.2247 125.797 44.1752 125.81 44.113 125.828C43.9888 125.863 43.8137 125.915 43.6051 125.984C43.1907 126.121 42.632 126.326 42.0747 126.601C41.5261 126.871 40.9318 127.23 40.4827 127.69C40.0299 128.154 39.6532 128.8 39.7562 129.596C39.9629 131.195 41.2519 131.778 42.2051 132.21C42.2377 132.225 42.2698 132.24 42.3016 132.254C42.5969 132.388 42.8749 132.515 43.1441 132.66C45.1676 133.751 46.79 133.747 48.6604 133.743L48.7 133.743C49.1117 133.742 49.5347 133.741 49.9847 133.75C51.8313 133.787 53.0166 133.615 54.5661 133.391L54.5766 133.389C54.8994 133.342 55.2373 133.293 55.6024 133.243C59.7564 132.67 64.8208 131.02 68.8129 129.532C70.8163 128.785 72.5635 128.074 73.8101 127.549C74.1659 127.399 74.4811 127.265 74.75 127.149V139.373C74.5126 139.416 74.2121 139.469 73.8586 139.53C72.9169 139.692 71.6 139.912 70.0996 140.142C67.0918 140.602 63.3722 141.097 60.4605 141.251C56.587 141.455 54.413 141.455 50.5395 141.251C44.6652 140.941 41.3657 140.616 35.6725 139.27C31.2964 138.236 28.8527 137.632 24.8071 135.816C23.9585 135.435 23.1679 135.132 22.4398 134.852L22.4329 134.849C20.2834 134.025 18.6671 133.396 17.072 131.515C16.927 131.344 16.7857 131.18 16.6509 131.024L16.6498 131.023C16.6494 131.022 16.6489 131.022 16.6484 131.021C15.5483 129.747 14.8801 128.951 14.7471 127.435C14.6827 126.699 14.7259 126.135 14.8643 125.609C15.0043 125.076 15.2518 124.545 15.6449 123.883C16.2239 122.908 16.8774 122.477 17.8227 121.864L17.8287 121.861C18.1662 121.642 18.5421 121.399 18.943 121.105C20.4619 119.993 22.6518 118.895 24.4971 118.063C25.4129 117.651 26.2312 117.31 26.8204 117.072C27.1148 116.953 27.3515 116.861 27.5142 116.798C27.5955 116.766 27.6582 116.742 27.7003 116.726L27.7477 116.708ZM113.746 144.794L113.25 144.973V145.5V160.5V161.564L114.252 161.206L163.252 143.706L163.267 143.701L163.282 143.695L163 143C163.282 143.695 163.282 143.695 163.282 143.695L163.283 143.695L163.285 143.694L163.294 143.69L163.328 143.676L163.462 143.622L163.972 143.414C164.412 143.236 165.041 142.98 165.798 142.671C167.314 142.054 169.346 141.226 171.409 140.382C175.507 138.705 179.802 136.938 180.335 136.671C181.37 136.154 183.113 135.122 184.145 133.383C184.574 132.66 184.897 131.994 185.086 131.273C185.278 130.546 185.323 129.803 185.247 128.934C185.047 126.656 183.98 125.419 182.53 123.97C179.91 121.349 176.129 119.622 171.789 117.808C166.678 115.672 163.505 115.141 158.121 114.26C153.046 113.429 150.121 113.291 145.006 113.25C139.3 113.205 136.037 113.35 130.381 114.26C127.032 114.798 122.868 115.935 119.561 116.93C117.903 117.428 116.453 117.893 115.417 118.234C114.898 118.404 114.484 118.543 114.198 118.64L114.126 118.664C114.018 118.701 113.931 118.73 113.869 118.752L113.784 118.781L113.762 118.789L113.756 118.791L113.755 118.791L113.754 118.791C113.754 118.791 113.754 118.791 113.781 118.87L113.754 118.791L113.25 118.966V119.5V135V136.051L114.244 135.709L146.231 124.714L146.233 124.713L146.257 124.706C146.28 124.698 146.316 124.688 146.362 124.674C146.454 124.647 146.589 124.607 146.758 124.56C147.097 124.465 147.571 124.339 148.11 124.214C149.206 123.961 150.505 123.73 151.485 123.75C151.679 123.754 151.867 123.757 152.049 123.76C154.259 123.8 155.543 123.825 157.721 124.696C158.449 124.987 158.905 125.193 159.218 125.463C159.484 125.692 159.679 125.998 159.756 126.596C159.784 126.815 159.71 127.081 159.46 127.412C159.211 127.742 158.836 128.067 158.414 128.361C157.999 128.652 157.57 128.89 157.242 129.057C157.079 129.14 156.943 129.204 156.85 129.247C156.803 129.268 156.767 129.284 156.743 129.294L156.726 129.302L113.746 144.794ZM162.732 142.299L162.729 142.3L114.75 159.436V146.027L157.254 130.706L157.272 130.699L157.289 130.692L157 130C157.289 130.692 157.289 130.692 157.289 130.692L157.289 130.692L157.291 130.691L157.294 130.69L157.305 130.686L157.341 130.67C157.372 130.656 157.417 130.637 157.472 130.611C157.582 130.561 157.737 130.488 157.922 130.394C158.289 130.207 158.783 129.934 159.273 129.591C159.758 129.252 160.274 128.823 160.657 128.316C161.04 127.808 161.341 127.154 161.244 126.404C161.126 125.489 160.779 124.829 160.197 124.327C159.663 123.867 158.967 123.579 158.279 123.304C155.839 122.328 154.327 122.301 152.09 122.261L152.076 122.261C151.894 122.257 151.708 122.254 151.515 122.25C150.339 122.226 148.887 122.495 147.773 122.753C147.206 122.884 146.709 123.016 146.354 123.115C146.176 123.165 146.033 123.207 145.934 123.236C145.884 123.251 145.846 123.263 145.819 123.271L145.788 123.28L145.78 123.283L145.778 123.284L145.777 123.284L145.777 123.284C145.777 123.284 145.776 123.284 146 124L145.776 123.284L145.766 123.287L145.756 123.291L114.75 133.949V120.037C115.028 119.943 115.413 119.814 115.885 119.659C116.912 119.321 118.35 118.86 119.993 118.366C123.288 117.375 127.374 116.263 130.619 115.74C136.171 114.847 139.348 114.705 144.994 114.75C150.062 114.79 152.904 114.926 157.879 115.74C163.244 116.618 166.271 117.127 171.211 119.192C175.586 121.021 179.09 122.651 181.47 125.03C182.863 126.424 183.601 127.338 183.753 129.066C183.817 129.801 183.774 130.365 183.636 130.891C183.496 131.424 183.248 131.955 182.855 132.617C182.049 133.974 180.63 134.846 179.665 135.329C179.198 135.562 174.993 137.295 170.841 138.993C168.779 139.837 166.748 140.665 165.233 141.282C164.475 141.59 163.846 141.846 163.407 142.025L162.898 142.232L162.764 142.287L162.732 142.299ZM199.25 100C199.25 154.814 154.814 199.25 100 199.25C45.1857 199.25 0.75 154.814 0.75 100C0.75 45.1857 45.1857 0.75 100 0.75C154.814 0.75 199.25 45.1857 199.25 100Z" stroke="black" stroke-width="1.5"/>
</svg>
