<svg width="201" height="200" viewBox="0 0 201 200" fill="none" xmlns="http://www.w3.org/2000/svg">
<path fill-rule="evenodd" clip-rule="evenodd" d="M200.292 100C200.292 155.228 155.521 200 100.292 200C55.1487 200 16.9918 170.087 4.56186 129L42 145C42 145 42.5369 147.156 43 148.5C44.1379 151.802 44.8278 153.765 47 156.5C49.0679 159.104 50.7148 160.184 53.5 162C56.06 163.67 57.577 164.607 60.5 165.5C63.5111 166.42 65.3518 166.543 68.5 166.5C70.4622 166.473 73.5 166 73.5 166C73.5 166 79.9159 164.201 83.5 162C87.0374 159.827 89.0432 158.346 91.5 155C94.2467 151.259 95.1444 148.562 96 144C96.4334 141.689 96.5 138 96.5 138L131.5 113C131.5 113 137.683 112.915 141.5 112C145.59 111.02 147.886 110.151 151.5 108C156.015 105.313 158.237 103.118 161.5 99C164.433 95.2982 165.825 92.9158 167.5 88.5C169.266 83.8454 169.897 80.9772 170 76C170.115 70.4474 169.339 67.2406 167.5 62C166.054 57.8801 165.032 55.557 162.5 52C159.778 48.1756 157.842 46.1972 154 43.5C150.283 40.8905 147.857 39.7824 143.5 38.5C139.712 37.3849 137.446 37.1611 133.5 37C129.983 36.8564 127.954 36.8209 124.5 37.5C119.519 38.4794 116.826 39.8427 112.5 42.5C108.367 45.0387 106.111 46.7794 103 50.5C100.358 53.6598 99.1637 55.7319 97.5 59.5C95.7775 63.4012 94.8958 65.7538 94.5 70C94.3006 72.1386 94.5 75.5 94.5 75.5L70 111C70 111 67.2452 110.794 65.5 111C63.289 111.261 61.0989 111.758 59 112.5C56.3642 113.432 53.5 115.5 53.5 115.5L0.5 93.5C3.849 41.301 47.2474 0 100.292 0C155.521 0 200.292 44.7715 200.292 100ZM54 154.5C52.0369 152.481 50 148.5 50 148.5L64 154C64 154 67.0575 154.199 69 154C69.1801 153.982 69.3562 153.964 69.5287 153.947C72.2449 153.673 74.0702 153.49 76.5 152C79.3347 150.262 82 145.5 82 145.5C82 145.5 83.3642 141.602 83.5 139C83.6756 135.634 83.6054 133.464 82 130.5C80.5532 127.829 76.5 125 76.5 125L62 118.5C62 118.5 67.4892 117.075 71 117.5C74.065 117.871 75.7587 118.58 78.5 120C82.0742 121.852 84.2328 123.174 86.5 126.5C88.3792 129.257 88.8731 131.223 89.5 134.5C90.197 138.144 90.3355 140.385 89.5 144C88.5558 148.085 87.345 150.421 84.5 153.5C81.4095 156.845 78.8771 158.242 74.5 159.5C69.8083 160.848 66.6347 161.033 62 159.5C58.5021 158.343 56.5683 157.141 54 154.5ZM110 87C107.863 83.0937 107.205 80.4479 107 76C106.818 72.0553 107.105 69.6945 108.5 66C109.801 62.5532 113.5 58 113.5 58C113.5 58 117.689 53.7632 121 52C124.764 49.9953 130.5 49.5 130.5 49.5C130.5 49.5 135.194 49.4309 137.5 50L137.9 50.0985C140.059 50.6294 141.414 50.9627 143.5 52C146.858 53.6704 148.979 54.7228 151.5 57.5C153.866 60.1064 154.705 62.2268 156 65.5C157.24 68.6343 157.457 70.6295 157.5 74C157.527 76.1566 157.507 77.4038 157 79.5C156.908 79.8808 156.817 80.2951 156.721 80.7362L156.72 80.7408L156.72 80.7432L156.719 80.7442C156.3 82.6693 155.769 85.1039 154.5 87.5C153.055 90.2285 152.413 91.0874 149.5 94C146.711 96.7891 144.568 97.5519 140.985 98.8273L140.5 99C137.144 100.198 131.5 100.5 131.5 100.5C131.5 100.5 127.452 100.265 125 99.5C121.578 98.4322 119.81 97.2249 117 95C113.745 92.4233 111.992 90.6419 110 87ZM116.5 85.0002C116.5 85.0002 113 79.1377 113 75.0002C113 70.8627 114.272 67.9861 116.5 64.5C118.582 61.2427 120.148 59.9265 123.5 58.0002C126.5 56.2762 128.54 55.5525 132 55.5002C135.647 55.4451 137.798 56.253 141 58.0002C144.517 59.9191 146.464 61.5497 148.5 65.0002C150.546 68.467 151 70.9748 151 75.0002C151 79.0256 150.627 81.5828 148.5 85.0002C146.452 88.2906 144.428 89.6909 141 91.5002C137.774 93.2031 135.647 94.0553 132 94.0002C128.54 93.9479 126.523 93.1844 123.5 91.5002C120.241 89.6844 116.5 85.0002 116.5 85.0002Z" fill="black"/>
<path fill-rule="evenodd" clip-rule="evenodd" d="M200.292 100C200.292 155.228 155.521 200 100.292 200C55.1487 200 16.9918 170.087 4.56186 129L42 145C42 145 42.5369 147.156 43 148.5C44.1379 151.802 44.8278 153.765 47 156.5C49.0679 159.104 50.7148 160.184 53.5 162C56.06 163.67 57.577 164.607 60.5 165.5C63.5111 166.42 65.3518 166.543 68.5 166.5C70.4622 166.473 73.5 166 73.5 166C73.5 166 79.9159 164.201 83.5 162C87.0374 159.827 89.0432 158.346 91.5 155C94.2467 151.259 95.1444 148.562 96 144C96.4334 141.689 96.5 138 96.5 138L131.5 113C131.5 113 137.683 112.915 141.5 112C145.59 111.02 147.886 110.151 151.5 108C156.015 105.313 158.237 103.118 161.5 99C164.433 95.2982 165.825 92.9158 167.5 88.5C169.266 83.8454 169.897 80.9772 170 76C170.115 70.4474 169.339 67.2406 167.5 62C166.054 57.8801 165.032 55.557 162.5 52C159.778 48.1756 157.842 46.1972 154 43.5C150.283 40.8905 147.857 39.7824 143.5 38.5C139.712 37.3849 137.446 37.1611 133.5 37C129.983 36.8564 127.954 36.8209 124.5 37.5C119.519 38.4794 116.826 39.8427 112.5 42.5C108.367 45.0387 106.111 46.7794 103 50.5C100.358 53.6598 99.1637 55.7319 97.5 59.5C95.7775 63.4012 94.8958 65.7538 94.5 70C94.3006 72.1386 94.5 75.5 94.5 75.5L70 111C70 111 67.2452 110.794 65.5 111C63.289 111.261 61.0989 111.758 59 112.5C56.3642 113.432 53.5 115.5 53.5 115.5L0.5 93.5C3.849 41.301 47.2474 0 100.292 0C155.521 0 200.292 44.7715 200.292 100ZM54 154.5C52.0369 152.481 50 148.5 50 148.5L64 154C64 154 67.0575 154.199 69 154C69.1801 153.982 69.3562 153.964 69.5287 153.947C72.2449 153.673 74.0702 153.49 76.5 152C79.3347 150.262 82 145.5 82 145.5C82 145.5 83.3642 141.602 83.5 139C83.6756 135.634 83.6054 133.464 82 130.5C80.5532 127.829 76.5 125 76.5 125L62 118.5C62 118.5 67.4892 117.075 71 117.5C74.065 117.871 75.7587 118.58 78.5 120C82.0742 121.852 84.2328 123.174 86.5 126.5C88.3792 129.257 88.8731 131.223 89.5 134.5C90.197 138.144 90.3355 140.385 89.5 144C88.5558 148.085 87.345 150.421 84.5 153.5C81.4095 156.845 78.8771 158.242 74.5 159.5C69.8083 160.848 66.6347 161.033 62 159.5C58.5021 158.343 56.5683 157.141 54 154.5ZM110 87C107.863 83.0937 107.205 80.4479 107 76C106.818 72.0553 107.105 69.6945 108.5 66C109.801 62.5532 113.5 58 113.5 58C113.5 58 117.689 53.7632 121 52C124.764 49.9953 130.5 49.5 130.5 49.5C130.5 49.5 135.194 49.4309 137.5 50L137.9 50.0985C140.059 50.6294 141.414 50.9627 143.5 52C146.858 53.6704 148.979 54.7228 151.5 57.5C153.866 60.1064 154.705 62.2268 156 65.5C157.24 68.6343 157.457 70.6295 157.5 74C157.527 76.1566 157.507 77.4038 157 79.5C156.908 79.8808 156.817 80.2951 156.721 80.7362L156.72 80.7408L156.72 80.7432L156.719 80.7442C156.3 82.6693 155.769 85.1039 154.5 87.5C153.055 90.2285 152.413 91.0874 149.5 94C146.711 96.7891 144.568 97.5519 140.985 98.8273L140.5 99C137.144 100.198 131.5 100.5 131.5 100.5C131.5 100.5 127.452 100.265 125 99.5C121.578 98.4322 119.81 97.2249 117 95C113.745 92.4233 111.992 90.6419 110 87ZM116.5 85.0002C116.5 85.0002 113 79.1377 113 75.0002C113 70.8627 114.272 67.9861 116.5 64.5C118.582 61.2427 120.148 59.9265 123.5 58.0002C126.5 56.2762 128.54 55.5525 132 55.5002C135.647 55.4451 137.798 56.253 141 58.0002C144.517 59.9191 146.464 61.5497 148.5 65.0002C150.546 68.467 151 70.9748 151 75.0002C151 79.0256 150.627 81.5828 148.5 85.0002C146.452 88.2906 144.428 89.6909 141 91.5002C137.774 93.2031 135.647 94.0553 132 94.0002C128.54 93.9479 126.523 93.1844 123.5 91.5002C120.241 89.6844 116.5 85.0002 116.5 85.0002Z" fill="white"/>
<path fill-rule="evenodd" clip-rule="evenodd" d="M0.5 93.5C0.36213 95.6489 0.292134 97.8163 0.292134 100C0.292134 110.085 1.78502 119.821 4.56186 129L42 145C42 145 42.5369 147.156 43 148.5C44.1379 151.802 44.8278 153.765 47 156.5C49.0679 159.104 50.7148 160.184 53.5 162C56.06 163.67 57.577 164.607 60.5 165.5C63.5111 166.42 65.3518 166.543 68.5 166.5C70.4622 166.473 73.5 166 73.5 166C73.5 166 79.9159 164.201 83.5 162C87.0374 159.827 89.0432 158.346 91.5 155C94.2467 151.259 95.1444 148.562 96 144C96.4334 141.689 96.5 138 96.5 138L131.5 113C131.5 113 137.683 112.915 141.5 112C145.59 111.02 147.886 110.151 151.5 108C156.015 105.313 158.237 103.118 161.5 99C164.433 95.2982 165.825 92.9158 167.5 88.5C169.266 83.8454 169.897 80.9772 170 76C170.115 70.4474 169.339 67.2406 167.5 62C166.054 57.8801 165.032 55.557 162.5 52C159.778 48.1756 157.842 46.1972 154 43.5C150.283 40.8905 147.857 39.7824 143.5 38.5C139.712 37.3849 137.446 37.1611 133.5 37C129.983 36.8564 127.954 36.8209 124.5 37.5C119.519 38.4794 116.826 39.8427 112.5 42.5C108.367 45.0387 106.111 46.7794 103 50.5C100.358 53.6598 99.1637 55.7319 97.5 59.5C95.7775 63.4012 94.8958 65.7538 94.5 70C94.3006 72.1386 94.5 75.5 94.5 75.5L70 111C70 111 67.2452 110.794 65.5 111C63.289 111.261 61.0989 111.758 59 112.5C56.3642 113.432 53.5 115.5 53.5 115.5L0.5 93.5ZM54 154.5C52.0369 152.481 50 148.5 50 148.5L64 154C64 154 67.0575 154.199 69 154C69.1801 153.982 69.3562 153.964 69.5287 153.947C72.2449 153.673 74.0702 153.49 76.5 152C79.3347 150.262 82 145.5 82 145.5C82 145.5 83.3642 141.602 83.5 139C83.6756 135.634 83.6054 133.464 82 130.5C80.5532 127.829 76.5 125 76.5 125L62 118.5C62 118.5 67.4892 117.075 71 117.5C74.065 117.871 75.7587 118.58 78.5 120C82.0742 121.852 84.2328 123.174 86.5 126.5C88.3792 129.257 88.8731 131.223 89.5 134.5C90.197 138.144 90.3355 140.385 89.5 144C88.5558 148.085 87.345 150.421 84.5 153.5C81.4095 156.845 78.8771 158.242 74.5 159.5C69.8083 160.848 66.6347 161.033 62 159.5C58.5021 158.343 56.5683 157.141 54 154.5ZM110 87C107.863 83.0937 107.205 80.4479 107 76C106.818 72.0553 107.105 69.6945 108.5 66C109.801 62.5532 113.5 58 113.5 58C113.5 58 117.689 53.7632 121 52C124.764 49.9953 130.5 49.5 130.5 49.5C130.5 49.5 135.194 49.4309 137.5 50L137.9 50.0985C140.059 50.6294 141.414 50.9627 143.5 52C146.858 53.6704 148.979 54.7228 151.5 57.5C153.866 60.1064 154.705 62.2268 156 65.5C157.24 68.6343 157.457 70.6295 157.5 74C157.527 76.1566 157.507 77.4038 157 79.5C156.908 79.8808 156.817 80.2951 156.721 80.7362L156.72 80.7408L156.72 80.7432L156.719 80.7442C156.3 82.6693 155.769 85.1039 154.5 87.5C153.055 90.2285 152.413 91.0874 149.5 94C146.711 96.7891 144.568 97.5519 140.985 98.8273L140.5 99C137.144 100.198 131.5 100.5 131.5 100.5C131.5 100.5 127.452 100.265 125 99.5C121.578 98.4322 119.81 97.2249 117 95C113.745 92.4233 111.992 90.6419 110 87Z" fill="black"/>
<path d="M113 75.0002C113 79.1377 116.5 85.0002 116.5 85.0002C116.5 85.0002 120.241 89.6844 123.5 91.5002C126.523 93.1844 128.54 93.9479 132 94.0002C135.647 94.0553 137.774 93.2031 141 91.5002C144.428 89.6909 146.452 88.2906 148.5 85.0002C150.627 81.5828 151 79.0256 151 75.0002C151 70.9748 150.546 68.467 148.5 65.0002C146.464 61.5497 144.517 59.9191 141 58.0002C137.798 56.253 135.647 55.4451 132 55.5002C128.54 55.5525 126.5 56.2762 123.5 58.0002C120.148 59.9265 118.582 61.2427 116.5 64.5C114.272 67.9861 113 70.8627 113 75.0002Z" fill="black"/>
<path d="M53.5994 116.353L53.2124 116.193L1.18668 94.5971C1.09073 96.3858 1.04213 98.1872 1.04213 100C1.04213 109.888 2.48792 119.437 5.17914 128.448L42.2947 144.31L42.6376 144.457L42.7278 144.819L42.7278 144.819L42.7281 144.82L42.7291 144.824L42.7336 144.842L42.751 144.911C42.7664 144.972 42.7889 145.06 42.8173 145.171C42.8743 145.391 42.955 145.7 43.0501 146.049C43.2414 146.753 43.486 147.608 43.7091 148.256C44.8432 151.547 45.4998 153.405 47.5873 156.034C49.5745 158.536 51.1324 159.561 53.9097 161.372C56.4527 163.03 57.8989 163.921 60.7191 164.783C63.6314 165.673 65.3886 165.793 68.4897 165.75C69.4287 165.737 70.6458 165.616 71.6457 165.495C72.1418 165.435 72.5777 165.376 72.8893 165.332C72.9739 165.32 73.0494 165.309 73.1143 165.299C73.1688 165.291 73.2159 165.284 73.2548 165.279L73.3402 165.266L73.3664 165.258C73.4128 165.245 73.482 165.225 73.5717 165.199C73.751 165.146 74.0122 165.068 74.3372 164.968C74.9875 164.767 75.8917 164.477 76.9062 164.118C78.9494 163.397 81.3866 162.418 83.1075 161.361C86.6016 159.215 88.5182 157.794 90.8954 154.556C93.5566 150.931 94.421 148.35 95.2628 143.862C95.4703 142.755 95.5933 141.295 95.6638 140.09C95.6988 139.491 95.7204 138.964 95.7332 138.587C95.7397 138.398 95.7439 138.247 95.7465 138.144L95.7493 138.026L95.7499 137.996L95.7501 137.989L95.7501 137.987L95.7501 137.986L95.7569 137.609L96.064 137.39L131.064 112.39L131.255 112.253L131.49 112.25L131.49 112.25L131.493 112.25L131.506 112.25L131.557 112.249C131.602 112.248 131.669 112.247 131.756 112.245C131.93 112.241 132.183 112.234 132.5 112.223C133.133 112.201 134.017 112.162 135.019 112.095C137.034 111.959 139.481 111.712 141.325 111.271C145.351 110.306 147.575 109.464 151.116 107.356C155.534 104.726 157.691 102.6 160.912 98.5343C163.8 94.8891 165.153 92.5734 166.799 88.234C168.537 83.6503 169.149 80.8667 169.25 75.9845C169.363 70.5493 168.612 67.435 166.792 62.2483C165.361 58.1706 164.368 55.9169 161.889 52.4349C159.213 48.6755 157.337 46.759 153.569 44.1138C149.925 41.5557 147.574 40.4811 143.288 39.2195C139.58 38.1279 137.38 37.9091 133.469 37.7494C129.971 37.6065 128.012 37.5739 124.645 38.2359C119.783 39.1917 117.177 40.5074 112.893 43.1391C108.81 45.6469 106.622 47.3377 103.575 50.9811C100.986 54.0778 99.8267 56.0872 98.1861 59.8029C96.4784 63.6706 95.6318 65.9385 95.2467 70.0696C95.1513 71.0936 95.1502 72.4327 95.175 73.5351C95.1873 74.0822 95.2058 74.5635 95.2212 74.9079C95.2289 75.08 95.2358 75.2176 95.2408 75.3119L95.2466 75.4197L95.2482 75.447L95.2486 75.4537L95.2486 75.4553L95.2487 75.4556L95.264 75.7134L95.1172 75.926L70.6172 111.426L70.373 111.78L53.5994 116.353ZM53.5994 116.353L53.9389 116.108L53.5994 116.353ZM82 145.5C82.7079 145.748 82.7079 145.748 82.7079 145.748L82.708 145.747L82.7083 145.747L82.7092 145.744L82.7125 145.734L82.7247 145.699C82.7352 145.669 82.7504 145.624 82.7697 145.567C82.8083 145.452 82.8633 145.286 82.9296 145.079C83.0619 144.665 83.2398 144.087 83.4221 143.425C83.7827 142.116 84.1766 140.425 84.249 139.039C84.4271 135.625 84.3631 133.288 82.6594 130.143C81.8681 128.682 80.4049 127.233 79.2003 126.183C78.588 125.649 78.0229 125.202 77.6106 124.887C77.4043 124.73 77.2356 124.606 77.1178 124.52C77.0589 124.477 77.0126 124.444 76.9806 124.421L76.9436 124.395L76.9335 124.388L76.9306 124.386L76.9298 124.385L76.9295 124.385C76.9293 124.385 76.9292 124.385 76.5 125L76.9292 124.385L76.8713 124.345L76.8068 124.316L64.3824 118.746C64.6727 118.691 64.9829 118.635 65.3073 118.58C67.1067 118.279 69.2674 118.046 70.9099 118.245C73.8527 118.601 75.4569 119.268 78.155 120.666C81.6908 122.498 83.7177 123.75 85.8802 126.922C87.6736 129.554 88.1435 131.4 88.7633 134.641C89.4471 138.216 89.5747 140.347 88.7692 143.831C88.306 145.835 87.7856 147.374 87.0487 148.779C86.312 150.182 85.3427 151.483 83.9491 152.991C82.4397 154.625 81.0895 155.758 79.6012 156.637C78.1098 157.517 76.4486 158.16 74.2928 158.779C71.9791 159.444 70.085 159.808 68.2198 159.83C66.3606 159.852 64.492 159.534 62.2355 158.788C58.8508 157.669 57.021 156.531 54.5377 153.977C53.6189 153.032 52.6551 151.594 51.9056 150.355C51.8245 150.221 51.7463 150.09 51.6713 149.962L63.7257 154.698L63.8346 154.741L63.9513 154.748L63.9516 154.748L63.9522 154.748L63.9542 154.749L63.9614 154.749L63.9887 154.751L64.0919 154.757C64.1464 154.76 64.2156 154.764 64.2978 154.768C64.3505 154.771 64.4085 154.774 64.4714 154.777C64.793 154.793 65.2421 154.812 65.7531 154.824C66.766 154.849 68.0554 154.851 69.0763 154.746L69.2154 154.732C69.3467 154.719 69.476 154.706 69.6037 154.693L69.6406 154.689C72.3439 154.417 74.3158 154.219 76.892 152.639C78.4437 151.688 79.891 149.958 80.9202 148.538C81.4434 147.817 81.8752 147.152 82.1763 146.667C82.3271 146.424 82.4455 146.226 82.5267 146.088C82.5674 146.018 82.5987 145.964 82.6202 145.927L82.645 145.883L82.6516 145.871L82.6535 145.868L82.6541 145.867L82.6543 145.867C82.6544 145.866 82.6544 145.866 82 145.5ZM82 145.5L82.7079 145.748L82.6863 145.809L82.6544 145.866L82 145.5ZM113.5 58C112.918 57.5271 112.918 57.5272 112.918 57.5273L112.918 57.5275L112.917 57.5284L112.914 57.5313L112.906 57.5421L112.873 57.5829C112.844 57.6184 112.803 57.6704 112.75 57.7374C112.644 57.8716 112.492 58.0662 112.306 58.3101C111.933 58.7977 111.423 59.4841 110.871 60.2803C109.778 61.8581 108.483 63.9209 107.798 65.7351C106.363 69.5379 106.065 72.0024 106.251 76.0345C106.46 80.5845 107.145 83.3435 109.342 87.36C111.396 91.1142 113.226 92.9687 116.534 95.588C119.379 97.84 121.23 99.1092 124.777 100.216C126.072 100.62 127.755 100.876 129.082 101.032C129.752 101.11 130.344 101.164 130.768 101.199C130.981 101.216 131.152 101.229 131.27 101.237C131.329 101.241 131.375 101.244 131.407 101.246L131.443 101.248L131.453 101.249L131.455 101.249L131.456 101.249L131.456 101.249C131.456 101.249 131.456 101.249 131.459 101.197L131.457 101.249L131.498 101.251L131.54 101.249L131.534 101.139C131.54 101.249 131.54 101.249 131.54 101.249L131.541 101.249L131.542 101.249L131.545 101.249L131.559 101.248L131.609 101.245C131.652 101.242 131.716 101.238 131.798 101.233C131.963 101.222 132.2 101.205 132.495 101.182C133.084 101.134 133.905 101.058 134.833 100.944C136.673 100.717 138.992 100.335 140.752 99.7064L141.236 99.5339L141.236 99.5338L141.262 99.5246C144.844 98.2498 147.122 97.439 150.03 94.5303C151.487 93.0732 152.407 92.1 153.146 91.1373C153.89 90.1669 154.435 89.2259 155.163 87.851C156.48 85.3639 157.029 82.846 157.447 80.9296L157.452 80.9069L157.452 80.9059L157.452 80.904L157.453 80.9019L157.454 80.8973L157.454 80.897L157.454 80.896C157.551 80.453 157.639 80.0474 157.729 79.6764C158.258 77.4895 158.278 76.1689 158.25 73.9905C158.206 70.5648 157.982 68.4713 156.697 65.224L156.684 65.1898C155.395 61.9321 154.513 59.7029 152.055 56.9959C149.443 54.1181 147.216 53.0107 143.879 51.3507L143.834 51.3285C141.674 50.2542 140.251 49.9043 138.093 49.3737L138.079 49.3702L138.079 49.3702L137.68 49.2718C136.443 48.9668 134.623 48.8409 133.163 48.7871C132.422 48.7598 131.755 48.7506 131.273 48.7481C131.032 48.7469 130.837 48.7474 130.702 48.7482C130.634 48.7486 130.581 48.749 130.545 48.7494L130.504 48.7499L130.493 48.75L130.49 48.7501L130.489 48.7501L130.489 48.7501L130.462 48.7505L130.435 48.7528L130.5 49.5C130.435 48.7528 130.435 48.7528 130.435 48.7528L130.435 48.7528L130.434 48.7529L130.43 48.7533L130.415 48.7546L130.363 48.7595C130.318 48.7638 130.252 48.7704 130.167 48.7794C129.997 48.7974 129.753 48.8253 129.448 48.865C128.839 48.9444 127.988 49.0714 127.017 49.2623C125.089 49.6413 122.628 50.2833 120.647 51.338C118.912 52.2624 116.983 53.8108 115.514 55.097C114.774 55.7455 114.139 56.3378 113.688 56.7682C113.463 56.9835 113.283 57.1586 113.16 57.2804C113.122 57.3177 113.09 57.35 113.062 57.3769C113.045 57.3939 113.03 57.4088 113.018 57.4214L112.98 57.4589L112.971 57.4688L112.968 57.4715L112.967 57.4723L112.967 57.4725C112.967 57.4726 112.967 57.4727 113.5 58ZM113.5 58L112.918 57.5271L112.941 57.4987L112.967 57.4727L113.5 58ZM116.5 85.0002L115.856 85.3847L115.882 85.4284L115.914 85.4683L116.5 85.0002ZM116.5 85.0002C115.914 85.4683 115.914 85.4683 115.914 85.4684L115.914 85.4687L115.915 85.4697L115.918 85.4727L115.927 85.484L115.96 85.5258C115.976 85.5455 115.996 85.57 116.02 85.599C116.04 85.6236 116.063 85.6515 116.089 85.6825C116.2 85.8175 116.362 86.0114 116.567 86.2492C116.975 86.7246 117.554 87.3775 118.237 88.0888C119.588 89.4956 121.402 91.1899 123.135 92.1554C126.228 93.8787 128.368 94.6954 131.989 94.7501C135.814 94.8079 138.071 93.8944 141.35 92.1635C144.837 90.3228 146.99 88.8448 149.137 85.3966C151.365 81.8175 151.75 79.1049 151.75 75.0002C151.75 70.8789 151.277 68.2302 149.146 64.619C148.099 62.8452 147.059 61.5121 145.811 60.3722C144.567 59.2359 143.143 58.3151 141.359 57.3418C138.089 55.5576 135.809 54.6926 131.989 54.7503C128.374 54.8049 126.21 55.5779 123.126 57.3499C121.433 58.3228 120.149 59.1653 119.018 60.1969C117.884 61.2322 116.931 62.4328 115.868 64.096C113.598 67.6466 112.25 70.6649 112.25 75.0002C112.25 77.2358 113.183 79.8582 114.064 81.8546C114.511 82.8672 114.957 83.7465 115.292 84.3729C115.459 84.6864 115.599 84.9374 115.698 85.1108C115.747 85.1976 115.786 85.265 115.813 85.3112L115.844 85.3645L115.853 85.3788L115.855 85.3828L115.856 85.384L115.856 85.3844C115.856 85.3845 115.856 85.3847 116.5 85.0002ZM53.4081 114.65L1.28419 93.0135C4.86891 41.4595 47.8267 0.75 100.292 0.75C155.106 0.75 199.542 45.1857 199.542 100C199.542 154.814 155.106 199.25 100.292 199.25C56.0563 199.25 18.5779 170.31 5.76114 130.328L41.3646 145.544C41.3647 145.544 41.3648 145.545 41.3649 145.545C41.4231 145.771 41.5055 146.085 41.6026 146.443C41.7955 147.153 42.0508 148.048 42.2909 148.744C43.4325 152.058 44.1557 154.124 46.4126 156.966C48.5612 159.672 50.2971 160.807 53.0903 162.628C55.6673 164.309 57.2552 165.293 60.2808 166.217C63.3907 167.168 65.3149 167.294 68.5103 167.25C69.5334 167.236 70.8163 167.107 71.8259 166.984C72.3345 166.923 72.7807 166.862 73.1 166.817C73.2598 166.794 73.3879 166.775 73.4765 166.762L73.5786 166.747L73.6055 166.743L73.6126 166.742L73.6145 166.741L73.6151 166.741L73.6154 166.741L73.6595 166.734L73.7024 166.722L73.5 166C73.7024 166.722 73.7025 166.722 73.7026 166.722L73.703 166.722L73.7041 166.722L73.7081 166.721L73.7229 166.716L73.7794 166.7C73.8287 166.686 73.9009 166.665 73.9937 166.638C74.1792 166.584 74.4472 166.504 74.7797 166.401C75.4444 166.196 76.3682 165.899 77.4058 165.533C79.4665 164.805 82.0293 163.783 83.8925 162.639C87.4732 160.44 89.5682 158.898 92.1045 155.444C94.9369 151.586 95.8677 148.774 96.7371 144.138C96.9631 142.934 97.0901 141.394 97.1612 140.177C97.1971 139.564 97.2192 139.025 97.2324 138.638C97.2355 138.548 97.238 138.466 97.2402 138.393L131.747 113.745C131.761 113.745 131.775 113.745 131.791 113.744C131.97 113.74 132.229 113.733 132.552 113.722C133.197 113.699 134.098 113.66 135.119 113.591C137.149 113.455 139.702 113.202 141.675 112.729C145.829 111.734 148.197 110.839 151.884 108.644C156.495 105.899 158.784 103.636 162.088 99.4657C165.065 95.7073 166.497 93.2581 168.201 88.766C169.994 84.0404 170.645 81.0876 170.75 76.0155C170.867 70.3454 170.065 67.0461 168.208 61.7517C166.747 57.5896 165.697 55.1971 163.111 51.5651C160.342 47.6757 158.347 45.6354 154.431 42.8862C150.641 40.2254 148.139 39.0837 143.712 37.7805C139.844 36.642 137.511 36.4132 133.531 36.2506C129.994 36.1062 127.896 36.0679 124.355 36.7641C119.254 37.7671 116.475 39.1781 112.107 41.8609C107.925 44.4304 105.601 46.221 102.425 50.0189C99.7295 53.2417 98.5007 55.3766 96.8139 59.1971C95.0765 63.1319 94.1598 65.5691 93.7532 69.9304C93.6493 71.045 93.6504 72.4559 93.6754 73.5688C93.688 74.1294 93.7069 74.6221 93.7227 74.9748C93.7281 75.0952 93.7331 75.1994 93.7374 75.2846L69.6239 110.224C69.611 110.224 69.5978 110.223 69.5844 110.222C69.2937 110.206 68.8876 110.186 68.4257 110.173C67.5123 110.147 66.3419 110.146 65.4122 110.255C63.1486 110.522 60.904 111.031 58.7499 111.793C57.3608 112.284 55.9349 113.065 54.8729 113.708C54.338 114.032 53.8875 114.326 53.5699 114.54C53.5114 114.579 53.4574 114.616 53.4081 114.65ZM50.2742 147.802L48.4295 147.077L49.3323 148.842L50 148.5C49.3323 148.842 49.3323 148.842 49.3324 148.842L49.3325 148.842L49.3329 148.843L49.3343 148.845L49.3392 148.855L49.3577 148.891C49.3739 148.922 49.3975 148.967 49.428 149.025C49.4892 149.141 49.5782 149.308 49.6911 149.514C49.9166 149.926 50.238 150.496 50.6221 151.131C51.3818 152.387 52.418 153.949 53.4623 155.023C56.1155 157.752 58.1534 159.018 61.7645 160.212C64.1426 160.999 66.1782 161.354 68.2374 161.33C70.2907 161.306 72.3291 160.904 74.7071 160.221C76.9285 159.583 78.722 158.898 80.3637 157.929C82.0085 156.958 83.4698 155.72 85.0509 154.009C86.5022 152.438 87.5608 151.031 88.3769 149.475C89.1927 147.921 89.7498 146.25 90.2307 144.169C91.0963 140.424 90.9469 138.072 90.2366 134.359C89.6028 131.045 89.0848 128.961 87.1197 126.078C84.748 122.598 82.4577 121.206 78.845 119.334C76.0604 117.891 74.2772 117.141 71.0901 116.755C69.2219 116.529 66.8825 116.796 65.0597 117.101C64.1379 117.255 63.3286 117.423 62.7494 117.552C62.4595 117.617 62.2267 117.672 62.0656 117.711C61.9851 117.73 61.9224 117.746 61.8795 117.757L61.83 117.769L61.8168 117.773L61.8132 117.774L61.8121 117.774L61.8118 117.774C61.8116 117.774 61.8115 117.774 62 118.5L61.8115 117.774L59.7442 118.311L61.6932 119.184L76.1263 125.654C76.1536 125.674 76.1905 125.7 76.2361 125.734C76.3456 125.813 76.5049 125.931 76.7012 126.08C77.0941 126.38 77.6327 126.806 78.2146 127.314C79.3983 128.346 80.6851 129.647 81.3405 130.857C82.8477 133.64 82.9241 135.643 82.751 138.961C82.6876 140.176 82.3315 141.736 81.976 143.026C81.8003 143.664 81.6286 144.223 81.501 144.622C81.4372 144.821 81.3845 144.98 81.348 145.088C81.3341 145.13 81.3226 145.164 81.3136 145.19C81.3052 145.204 81.2952 145.222 81.2836 145.242C81.2692 145.267 81.2523 145.296 81.2331 145.328C81.1575 145.457 81.0456 145.645 80.9021 145.875C80.6149 146.338 80.2032 146.972 79.7058 147.658C78.6936 149.054 77.3909 150.574 76.1079 151.361C73.8362 152.754 72.1639 152.928 69.4537 153.2L69.2512 153.221C69.1436 153.232 69.0344 153.243 68.9237 153.254C68.002 153.348 66.7914 153.349 65.79 153.325C65.2938 153.313 64.8572 153.294 64.5448 153.279C64.4944 153.276 64.4473 153.274 64.4037 153.272C64.3122 153.267 64.2362 153.263 64.1784 153.259L64.1637 153.259L50.2742 147.802ZM140.733 98.1208L140.248 98.2935L140.248 98.2936C138.652 98.8632 136.471 99.2306 134.65 99.4548C133.747 99.5658 132.948 99.6401 132.374 99.6865C132.087 99.7097 131.857 99.7259 131.7 99.7363C131.621 99.7415 131.56 99.7452 131.52 99.7476L131.502 99.7487L131.501 99.7487C131.472 99.7468 131.429 99.744 131.373 99.7402C131.26 99.7324 131.095 99.7205 130.89 99.7038C130.479 99.6704 129.905 99.6179 129.257 99.542C127.946 99.3886 126.379 99.1447 125.223 98.784C121.926 97.7551 120.242 96.6098 117.465 94.412C114.264 91.8779 112.589 90.1697 110.658 86.64C108.581 82.8439 107.949 80.3114 107.749 75.9655C107.571 72.1081 107.848 69.851 109.202 66.2649C109.818 64.6323 111.023 62.6951 112.104 61.1346C112.64 60.3617 113.136 59.6943 113.498 59.2205C113.679 58.9837 113.826 58.7957 113.927 58.6673C113.978 58.6032 114.017 58.554 114.043 58.5211L114.059 58.5013L114.078 58.4826C114.087 58.474 114.096 58.4642 114.107 58.4532C114.135 58.4255 114.171 58.3905 114.213 58.3486C114.332 58.2318 114.505 58.0621 114.724 57.8527C115.163 57.4336 115.782 56.8565 116.503 56.2254C117.956 54.9524 119.778 53.5008 121.353 52.662C123.136 51.7119 125.425 51.1039 127.306 50.7341C128.239 50.5507 129.058 50.4286 129.642 50.3524C129.934 50.3144 130.167 50.2879 130.325 50.271C130.359 50.2674 130.39 50.2643 130.416 50.2615C130.453 50.2578 130.483 50.2549 130.506 50.2526L130.539 50.2496L130.561 50.2493C130.595 50.249 130.645 50.2485 130.711 50.2481C130.841 50.2474 131.031 50.2469 131.266 50.2481C131.736 50.2505 132.387 50.2595 133.108 50.2861C134.571 50.34 136.25 50.4642 137.32 50.7282L137.321 50.7283L137.721 50.8267L137.721 50.8268C139.873 51.356 141.16 51.6736 143.166 52.6715C146.52 54.3398 148.527 55.3403 150.945 58.0041C153.211 60.5004 154.009 62.5059 155.303 65.776C156.498 68.7973 156.708 70.6943 156.75 74.0095C156.777 76.1442 156.756 77.318 156.271 79.3236C156.176 79.7142 156.084 80.1372 155.988 80.5763L155.988 80.5796L155.988 80.5805L155.987 80.5815L155.987 80.5844C155.987 80.5848 155.987 80.5852 155.986 80.5856C155.565 82.5161 155.052 84.8555 153.837 87.149C153.12 88.5026 152.622 89.3552 151.955 90.2246C151.283 91.1017 150.425 92.0142 148.97 93.4697C146.307 96.1321 144.303 96.85 140.733 98.1207L140.733 98.1208ZM117.118 84.5722L117.109 84.5555C117.084 84.5138 117.048 84.4512 117.002 84.3696C116.909 84.2063 116.775 83.9669 116.615 83.6662C116.293 83.0641 115.864 82.2192 115.436 81.249C114.567 79.2797 113.75 76.9021 113.75 75.0002C113.75 71.0604 114.945 68.3256 117.132 64.904C118.151 63.3099 119.023 62.2237 120.029 61.305C121.04 60.3826 122.215 59.6039 123.874 58.6505C126.79 56.9744 128.707 56.3 132.011 56.2501C135.486 56.1976 137.507 56.9485 140.641 58.6586C142.374 59.6042 143.681 60.4582 144.799 61.4796C145.913 62.4973 146.865 63.7048 147.854 65.3814C149.815 68.7038 150.25 71.0707 150.25 75.0002C150.25 78.9464 149.89 81.3482 147.863 84.6038C145.913 87.7363 144.018 89.059 140.65 90.8369C137.477 92.5117 135.48 93.3027 132.011 93.2503C128.713 93.2005 126.817 92.4901 123.865 90.845C122.339 89.9946 120.653 88.439 119.319 87.0498C118.659 86.363 118.099 85.7314 117.704 85.2717C117.507 85.0421 117.351 84.8558 117.245 84.7275C117.219 84.695 117.195 84.6662 117.175 84.6413C117.155 84.6173 117.138 84.597 117.125 84.5807L117.118 84.5722Z" stroke="black" stroke-width="1.5"/>
</svg>
