<svg width="200" height="200" viewBox="0 0 200 200" fill="none" xmlns="http://www.w3.org/2000/svg">
<path d="M117.5 89.5C117.5 89.5 140.624 111.19 152.5 127.5C157.983 135.031 161.051 139.316 165.5 147.5C168.295 152.641 169.984 155.507 172 161C172.884 163.41 174 167.262 174 167.262C174 167.262 175.905 158.623 176 153C176.119 145.904 175.267 141.873 173.5 135C171.947 128.957 168 120 168 120C168 120 160.479 106.341 155 98C148.182 87.6205 143.986 82.0105 136 72.5C129.24 64.4498 117.698 52.7623 117.698 52.7623L117.501 52.9334L99.9534 71.2014L117.5 89.5Z" fill="black"/>
<path d="M148.501 30.4718C149.63 30.0385 150.666 29.5971 151.652 29.1773C155.416 27.5748 158.437 26.2883 163.001 26.9778C167.096 27.5965 172.679 31.3142 172.679 31.3142C166.844 25.1413 160.23 19.7115 152.995 15.1817C152.995 15.1817 148.156 13.9246 145.001 14C141.595 14.0814 139.419 14.9263 136.704 15.981C135.871 16.3045 134.987 16.6478 134.001 16.9949C126.387 19.6749 122.214 22.3044 115.833 26.3241C115.243 26.6961 114.633 27.08 114.001 27.4769C108.301 31.0527 99.9722 37.4801 99.9722 37.4801C99.9722 37.4801 106.741 41.6237 110.5 45C113.575 47.7626 117.698 52.7623 117.698 52.7623C117.698 52.7623 124.375 46.5238 129.001 42.9505C130.116 42.0891 131.152 41.2717 132.139 40.4934L132.141 40.4921C137.484 36.2773 141.377 33.2067 148.501 30.4718Z" fill="black"/>
<path d="M27.2711 31.3665C27.2711 31.3665 32.8818 27.6193 37 27C42.7605 26.1337 46.0628 28.4096 51.5 30.5C59.943 33.7461 63.8473 37.4629 71 43C75.5976 46.5591 82.2347 52.7693 82.2347 52.7693L89.5005 44.9471L99.9722 37.4801C99.9722 37.4801 91.677 31.0686 86 27.5C85.371 27.1046 84.7652 26.7222 84.178 26.3515C77.793 22.3212 73.6188 19.6863 66 17C65.014 16.6523 64.13 16.3084 63.2968 15.9843C60.5816 14.928 58.4062 14.0817 55 14C51.8427 13.9242 47 15.1845 47 15.1845C39.7467 19.7266 33.1177 25.1732 27.2711 31.3665Z" fill="black"/>
<path d="M47.5002 127.306C59.3781 111.021 82.5004 89.3711 82.5004 89.3711L99.9534 71.2014L82.5 53L82.2347 52.7693C82.2347 52.7693 70.7363 64.3934 64.0003 72.4001C56.0142 81.8927 51.8192 87.4937 45.0002 97.8566C39.5215 106.182 36.0835 110.727 32.0001 119.819C29.4477 125.502 26.5 134.793 26.5 134.793C26.5 134.793 23.8806 145.679 24 152.763C24.0946 158.376 26 167 26 167C26 167 27.1158 163.155 28 160.749C30.0159 155.264 31.7055 152.404 34.5001 147.272C38.9499 139.101 42.0174 134.823 47.5002 127.306Z" fill="black"/>
<path d="M82.2347 52.7693L82.5 53L99.9534 71.2014L117.501 52.9334L117.698 52.7623C117.698 52.7623 113.575 47.7626 110.5 45C106.741 41.6237 99.9722 37.4801 99.9722 37.4801L89.5005 44.9471L82.2347 52.7693Z" fill="black"/>
<path d="M0 100C0 155.228 44.7715 200 100 200C129.328 200 155.708 187.374 174 167.262C174 167.262 172.884 163.41 172 161C169.984 155.507 168.295 152.641 165.5 147.5C161.051 139.316 157.983 135.031 152.5 127.5C140.624 111.19 117.5 89.5 117.5 89.5L99.9534 71.2014L82.5004 89.3711C82.5004 89.3711 59.3781 111.021 47.5002 127.306C42.0174 134.823 38.9499 139.101 34.5001 147.272C31.7055 152.404 30.0159 155.264 28 160.749C27.1158 163.155 26 167 26 167C26 167 24.0946 158.376 24 152.763C23.8806 145.679 26.5 134.793 26.5 134.793C26.5 134.793 29.4477 125.502 32.0001 119.819C36.0835 110.727 39.5215 106.182 45.0002 97.8566C51.8192 87.4937 56.0142 81.8927 64.0003 72.4001C70.7363 64.3934 82.2347 52.7693 82.2347 52.7693C82.2347 52.7693 75.5976 46.5591 71 43C63.8473 37.4629 59.943 33.7461 51.5 30.5C46.0628 28.4096 42.7605 26.1337 37 27C32.8818 27.6193 27.2711 31.3665 27.2711 31.3665C10.3644 49.2756 0 73.4274 0 100Z" fill="white"/>
<path d="M174 167.262C190.154 149.5 200 125.9 200 100C200 73.4016 189.615 49.2285 172.679 31.3142C172.679 31.3142 167.096 27.5965 163.001 26.9778C158.437 26.2883 155.416 27.5748 151.652 29.1773C150.666 29.5971 149.63 30.0385 148.501 30.4718C141.377 33.2067 137.484 36.2773 132.141 40.4921L132.139 40.4934C131.152 41.2717 130.116 42.0891 129.001 42.9505C124.375 46.5238 117.698 52.7623 117.698 52.7623C117.698 52.7623 129.24 64.4498 136 72.5C143.986 82.0105 148.182 87.6205 155 98C160.479 106.341 168 120 168 120C168 120 171.947 128.957 173.5 135C175.267 141.873 176.119 145.904 176 153C175.905 158.623 174 167.262 174 167.262Z" fill="white"/>
<path fill-rule="evenodd" clip-rule="evenodd" d="M172.73 31.3368L172.679 31.3142C166.844 25.1413 160.23 19.7115 152.995 15.1817L153.001 15.1825C160.254 19.7168 166.883 25.1542 172.73 31.3368Z" fill="#D9D9D9"/>
<path d="M100 0C80.5333 0 62.3657 5.5624 47 15.1845C47 15.1845 51.8427 13.9242 55 14C58.4062 14.0817 60.5816 14.928 63.2968 15.9843C64.13 16.3084 65.014 16.6523 66 17C73.6188 19.6863 77.793 22.3212 84.178 26.3515C84.7652 26.7222 85.371 27.1046 86 27.5C91.677 31.0686 99.9722 37.4801 99.9722 37.4801C99.9722 37.4801 108.301 31.0527 114.001 27.4769C114.633 27.08 115.243 26.6961 115.833 26.3241C122.214 22.3044 126.387 19.6749 134.001 16.9949C134.987 16.6478 135.871 16.3045 136.704 15.981C139.419 14.9263 141.595 14.0814 145.001 14C148.156 13.9246 152.995 15.1817 152.995 15.1817C137.631 5.5613 119.465 0 100 0Z" fill="white"/>
<path d="M26.5 134.793C25.7708 134.618 25.7708 134.618 25.7708 134.618L25.7707 134.619L25.7702 134.62L25.7687 134.627L25.7629 134.651L25.7405 134.746C25.7211 134.828 25.6927 134.95 25.6567 135.107C25.5846 135.422 25.482 135.878 25.3594 136.447C25.1143 137.585 24.7887 139.176 24.4668 140.99C23.8254 144.606 23.1891 149.157 23.2501 152.775C23.2984 155.642 23.8068 159.248 24.2962 162.113C24.4635 163.092 24.6294 163.989 24.7754 164.747C9.8023 147.367 0.75 124.74 0.75 100C0.75 73.6577 11.0115 49.7137 27.7568 31.9446C27.7967 31.9185 27.8534 31.8816 27.9255 31.8353C28.0828 31.7343 28.3134 31.5885 28.6034 31.4112C29.1839 31.0562 30.0001 30.5766 30.9419 30.0785C32.8476 29.0705 35.1854 28.0313 37.1115 27.7417C41.4516 27.089 44.2504 28.2794 47.9793 29.8654C48.9802 30.2911 50.0481 30.7453 51.2309 31.2C58.2483 33.898 62.0516 36.9032 67.3914 41.1225C68.3787 41.9026 69.4185 42.7242 70.5409 43.5931C72.8177 45.3556 75.61 47.7832 77.8415 49.7784C78.9554 50.7744 79.9262 51.6595 80.6183 52.2956C80.8242 52.4848 81.0055 52.652 81.1585 52.7934C80.8317 53.1262 80.3678 53.5998 79.7955 54.1874C78.6108 55.4038 76.9609 57.1092 75.1001 59.0653C71.3815 62.9742 66.8098 67.8956 63.4264 71.9173C55.4219 81.4317 51.2092 87.0563 44.3736 97.4443C43.4554 98.8398 42.5931 100.131 41.7743 101.357C37.7233 107.422 34.7385 111.891 31.3159 119.512C30.0257 122.384 28.6419 126.154 27.5846 129.191C27.0549 130.712 26.6054 132.055 26.2881 133.018C26.1295 133.5 26.0039 133.886 25.9179 134.153C25.8987 134.212 25.8814 134.266 25.8662 134.313C25.8474 134.372 25.8318 134.42 25.8194 134.459L25.7939 134.539L25.7874 134.559L25.7857 134.565L25.7853 134.566L25.7852 134.566C25.7851 134.567 25.7851 134.567 26.5 134.793ZM26.5 134.793L25.7708 134.618L25.7771 134.592L25.7851 134.567L26.5 134.793ZM118.774 52.7873C119.102 53.122 119.569 53.5991 120.145 54.1914C121.334 55.4145 122.99 57.1292 124.858 59.0959C128.59 63.0261 133.179 67.9742 136.574 72.0177C144.579 81.55 148.792 87.1835 155.627 97.5882C158.379 101.778 161.638 107.294 164.205 111.754C165.489 113.985 166.602 115.956 167.394 117.369C167.789 118.075 168.105 118.642 168.322 119.033C168.43 119.228 168.514 119.379 168.571 119.482L168.635 119.598L168.651 119.628L168.656 119.636L168.657 119.638L168.657 119.638C168.657 119.638 168.657 119.638 168 120L168.657 119.638L168.673 119.667L168.686 119.698L168.569 119.749C168.686 119.698 168.686 119.698 168.686 119.698L168.687 119.698L168.687 119.7L168.689 119.705L168.698 119.725L168.732 119.802C168.762 119.87 168.805 119.97 168.861 120.099C168.973 120.358 169.134 120.733 169.332 121.202C169.728 122.141 170.272 123.455 170.865 124.959C172.048 127.959 173.438 131.745 174.226 134.813C176.001 141.715 176.871 145.82 176.75 153.013C176.702 155.884 176.193 159.496 175.704 162.366C175.56 163.208 175.418 163.989 175.288 164.673C190.224 147.302 199.25 124.706 199.25 100C199.25 73.6321 188.969 49.6671 172.194 31.8928C172.155 31.8669 172.099 31.8305 172.027 31.7848C171.871 31.6846 171.641 31.5399 171.353 31.3639C170.775 31.0117 169.963 30.5358 169.026 30.0413C167.13 29.0407 164.804 28.0087 162.889 27.7194C158.554 27.0645 155.709 28.265 151.946 29.8674L151.941 29.8694C150.958 30.288 149.911 30.7339 148.77 31.172C141.76 33.863 137.943 36.8706 132.606 41.0804L118.774 52.7873ZM118.774 52.7873C118.929 52.6446 119.112 52.4757 119.32 52.2843C120.017 51.6454 120.993 50.7563 122.114 49.7559C124.359 47.7518 127.169 45.3136 129.459 43.544C130.578 42.6801 131.617 41.8606 132.603 41.0827L132.603 41.0823L132.604 41.0818L132.605 41.0809L118.774 52.7873ZM80.8701 55.234C81.4533 54.6351 81.9235 54.1552 82.2499 53.8228L98.9138 71.2009L81.9732 88.8373L81.9705 88.8398L81.9201 88.8872C81.8756 88.929 81.8096 88.9911 81.7231 89.0727C81.5501 89.2359 81.2952 89.4772 80.9667 89.7898C80.3096 90.4152 79.3582 91.3262 78.1796 92.4701C75.8226 94.7578 72.5561 97.9779 68.9176 101.708C61.6478 109.161 52.8664 118.676 46.8942 126.864C41.4064 134.388 38.3153 138.698 33.8414 146.913C33.5319 147.482 33.2356 148.023 32.9506 148.543C30.6677 152.712 29.1082 155.56 27.2961 160.49C26.9185 161.518 26.5016 162.797 26.1466 163.929C26.029 163.305 25.9023 162.607 25.7748 161.86C25.2877 159.009 24.7962 155.497 24.7499 152.75C24.6915 149.284 25.3053 144.851 25.9437 141.253C26.2617 139.46 26.5835 137.887 26.8258 136.763C26.9469 136.201 27.048 135.751 27.1187 135.442C27.1541 135.288 27.1819 135.169 27.2007 135.089L27.2221 134.998L27.2231 134.994L27.2232 134.994L27.2481 134.916C27.2701 134.847 27.3028 134.745 27.3454 134.613C27.4306 134.35 27.5552 133.966 27.7128 133.487C28.028 132.531 28.4749 131.196 29.0012 129.684C30.0558 126.654 31.4221 122.936 32.6842 120.126C36.0523 112.627 38.9659 108.264 43.0091 102.209C43.8305 100.979 44.6987 99.6791 45.6267 98.2688C52.4291 87.9312 56.6065 82.3537 64.5742 72.8829C67.9268 68.898 72.4722 64.0039 76.1869 60.0991C78.0427 58.1483 79.6884 56.4472 80.8701 55.234ZM99.9538 70.1182L83.2876 52.7378L89.9981 45.5134L100.001 38.3807C100.18 38.4928 100.412 38.6385 100.686 38.8131C101.375 39.2516 102.333 39.8713 103.407 40.5958C105.564 42.0502 108.16 43.9063 109.999 45.5579C111.503 46.9094 113.28 48.8235 114.691 50.4148C115.394 51.2075 116.002 51.9146 116.434 52.4233C116.522 52.5273 116.603 52.623 116.676 52.7094L99.9538 70.1182ZM83.0413 89.8906L99.9529 72.2845L116.959 90.0191L116.972 90.0334L116.987 90.047L117.5 89.5C116.987 90.047 116.987 90.0471 116.987 90.0472L116.988 90.0479L116.991 90.0507L117.003 90.0623L117.053 90.1088C117.096 90.15 117.162 90.2115 117.247 90.2926C117.419 90.4547 117.672 90.695 117.999 91.0067C118.653 91.6301 119.601 92.5394 120.776 93.6816C123.126 95.9663 126.382 99.1824 130.009 102.907C137.27 110.364 145.989 119.832 151.894 127.941C157.372 135.465 160.416 139.718 164.841 147.858C165.151 148.429 165.447 148.971 165.732 149.49C168.014 153.666 169.523 156.428 171.296 161.258C171.731 162.444 172.226 163.994 172.615 165.255C172.809 165.885 172.975 166.439 173.093 166.836C173.118 166.921 173.141 166.998 173.162 167.068C155.017 186.85 128.957 199.25 100 199.25C71.0117 199.25 44.926 186.822 26.7803 167.004C26.8116 166.897 26.8545 166.752 26.907 166.575C27.0249 166.179 27.1913 165.626 27.3851 164.998C27.7738 163.738 28.269 162.191 28.704 161.008C30.4762 156.186 31.9854 153.43 34.2668 149.263C34.5514 148.743 34.8481 148.201 35.1587 147.631C39.5844 139.504 42.6284 135.258 48.1061 127.748C54.0119 119.651 62.7306 110.199 69.9914 102.755C73.6183 99.0372 76.8747 95.827 79.2243 93.5465C80.3991 92.4063 81.3469 91.4987 82.0008 90.8764C82.3277 90.5653 82.5811 90.3255 82.7526 90.1637C82.8384 90.0827 82.9036 90.0213 82.9474 89.9802L82.9968 89.9338L83.0091 89.9222L83.0121 89.9194L83.0128 89.9187C83.013 89.9186 83.0131 89.9185 82.5004 89.3711L83.0131 89.9185L83.0276 89.905L83.0413 89.8906ZM118.028 88.9667L100.993 71.2018L117.687 53.8217C118.015 54.1557 118.486 54.637 119.069 55.2371C120.255 56.457 121.907 58.1673 123.77 60.1288C127.499 64.0549 132.061 68.9756 135.426 72.9823C143.393 82.471 147.571 88.0575 154.373 98.4118C157.1 102.563 160.341 108.047 162.905 112.502C164.185 114.728 165.295 116.693 166.085 118.102C166.48 118.807 166.794 119.372 167.01 119.761C167.118 119.955 167.202 120.106 167.258 120.207L167.322 120.323L167.327 120.332L167.357 120.402C167.386 120.468 167.429 120.567 167.484 120.694C167.594 120.949 167.754 121.321 167.95 121.786C168.342 122.716 168.882 124.018 169.47 125.509C170.649 128.498 172.009 132.213 172.774 135.187C174.533 142.032 175.368 145.988 175.25 152.987C175.204 155.739 174.712 159.258 174.225 162.114C174.098 162.861 173.971 163.561 173.853 164.186C173.498 163.052 173.082 161.771 172.704 160.742C170.892 155.803 169.332 152.95 167.048 148.772C166.764 148.251 166.468 147.71 166.159 147.142C161.686 138.913 158.595 134.596 153.106 127.059C147.135 118.858 138.354 109.326 131.084 101.861C127.445 98.124 124.179 94.8981 121.822 92.6062C120.643 91.4602 119.691 90.5475 119.034 89.921C118.706 89.6078 118.451 89.3661 118.278 89.2026C118.239 89.1655 118.204 89.1325 118.173 89.1035C118.136 89.0686 118.105 89.0396 118.081 89.0167L118.03 88.9692L118.028 88.9667ZM36.8885 26.2583C35.1937 26.5132 33.299 27.2549 31.6349 28.0499C36.4268 23.4953 41.6732 19.4144 47.2988 15.8824C47.326 15.8755 47.358 15.8676 47.3945 15.8585C47.53 15.825 47.7279 15.7769 47.9758 15.7193C48.4717 15.604 49.1656 15.4511 49.9562 15.3006C51.5524 14.9967 53.4872 14.7139 54.982 14.7498C58.2466 14.8281 60.3159 15.6294 63.0249 16.6833L63.0285 16.6847C63.8598 17.0081 64.7532 17.3556 65.7506 17.7073C73.2846 20.3637 77.3986 22.9591 83.7776 26.9858L83.7783 26.9862C84.3652 27.3566 84.9714 27.7393 85.6009 28.135C88.4149 29.9039 91.8897 32.3853 94.6703 34.4323C96.0586 35.4542 97.27 36.365 98.1342 37.0202C98.3487 37.1828 98.5417 37.3296 98.7107 37.4585L89.0651 44.3364L89.0029 44.3807L88.951 44.4366L82.1956 51.7094C82.0376 51.5634 81.8489 51.3892 81.6333 51.1911C80.9373 50.5515 79.9614 49.6617 78.8413 48.6602C76.6049 46.6606 73.7799 44.2035 71.4591 42.4069C70.3568 41.5536 69.3292 40.7412 68.3475 39.9651C62.995 35.7336 59.0119 32.5846 51.7691 29.8C50.6958 29.3873 49.6928 28.9589 48.7255 28.5457C44.9294 26.9242 41.6827 25.5373 36.8885 26.2583ZM55.018 13.2502C53.84 13.2219 52.4597 13.3691 51.181 13.5665C65.5952 5.40746 82.2527 0.75 100 0.75C117.747 0.75 134.404 5.40725 148.818 13.566C147.54 13.3689 146.16 13.2221 144.983 13.2502C141.446 13.3348 139.167 14.2197 136.456 15.2728L136.432 15.2819C135.598 15.6057 134.725 15.9449 133.752 16.2874C126.059 18.9954 121.826 21.6625 115.446 25.6814L115.433 25.6895C114.843 26.0616 114.234 26.4451 113.602 26.8416C110.728 28.6449 107.202 31.1593 104.405 33.2151C103.004 34.2446 101.782 35.1619 100.91 35.822C100.524 36.1141 100.207 36.3558 99.9725 36.5347C99.7395 36.3564 99.4239 36.1156 99.0405 35.8249C98.172 35.1664 96.9548 34.2513 95.5596 33.2243C92.7734 31.1733 89.2621 28.6647 86.3991 26.865C85.7709 26.4701 85.1656 26.088 84.5783 25.7173L84.5653 25.7091C78.1816 21.6796 73.9478 19.0071 66.2494 16.2927C65.2763 15.9496 64.4028 15.6098 63.5688 15.2854L63.5455 15.2763C60.8342 14.2215 58.5557 13.3351 55.018 13.2502ZM152.697 15.8796C158.307 19.4018 163.541 23.4699 168.322 28.0093C166.671 27.2229 164.793 26.49 163.113 26.2362C158.339 25.5149 155.148 26.8738 151.403 28.4682L151.358 28.4873C150.371 28.9076 149.346 29.3439 148.232 29.7716C141.002 32.5473 137.034 35.6772 131.693 39.89L131.676 39.9032L131.675 39.9037L131.674 39.9046L131.674 39.9051L131.673 39.9054C130.687 40.6837 129.654 41.4985 128.542 42.3569C126.207 44.1607 123.365 46.6284 121.115 48.6369C119.988 49.6428 119.007 50.5367 118.306 51.1791C118.101 51.3674 117.92 51.5342 117.766 51.6759C117.708 51.6065 117.645 51.5319 117.577 51.4526C117.14 50.9376 116.525 50.222 115.813 49.4194C114.395 47.8203 112.572 45.8532 111.001 44.4421C109.081 42.7174 106.413 40.8135 104.246 39.3521C103.158 38.6186 102.189 37.9915 101.491 37.5476C101.421 37.5026 101.353 37.4595 101.288 37.4183C101.445 37.2988 101.621 37.1648 101.815 37.018C102.683 36.3612 103.899 35.4482 105.293 34.4238C108.085 32.372 111.574 29.8848 114.399 28.1123C115.031 27.7157 115.64 27.3321 116.23 26.9609L116.233 26.9587C122.608 22.9427 126.721 20.3525 134.25 17.7023C135.247 17.3513 136.14 17.0044 136.972 16.6816L136.975 16.6801C139.685 15.6279 141.754 14.8278 145.019 14.7498C146.513 14.7141 148.446 14.9963 150.041 15.2994C150.831 15.4495 151.525 15.6021 152.021 15.717C152.268 15.7745 152.466 15.8224 152.601 15.8559C152.638 15.8649 152.67 15.8728 152.697 15.8796Z" stroke="black" stroke-width="1.5"/>
</svg>
